<?xml version="1.0" standalone="no"?>
<!DOCTYPE svg PUBLIC "-//W3C//DTD SVG 20010904//EN"
 "http://www.w3.org/TR/2001/REC-SVG-20010904/DTD/svg10.dtd">
<svg version="1.0" xmlns="http://www.w3.org/2000/svg"
 width="16.000000pt" height="16.000000pt" viewBox="0 0 16.000000 16.000000"
 preserveAspectRatio="xMidYMid meet">
<metadata>
Created by potrace 1.11, written by Peter Selinger 2001-2013
</metadata>
<g transform="translate(0.000000,16.000000) scale(0.016000,-0.016000)"
fill="#000000" stroke="none">
<path d="M0 500 l0 -500 500 0 500 0 0 500 0 500 -500 0 -500 0 0 -500z m582
186 c23 -12 29 -12 39 0 7 9 25 14 43 12 23 -2 32 -9 34 -26 4 -25 -23 -41
-41 -23 -24 24 -36 12 -20 -19 31 -62 -13 -114 -111 -130 -78 -13 -96 -19 -96
-34 0 -10 25 -15 90 -18 102 -5 138 -23 154 -76 11 -40 -15 -87 -64 -114 -46
-25 -192 -22 -234 5 -43 28 -31 97 16 97 13 0 18 -8 18 -31 0 -25 6 -32 37
-46 40 -16 115 -13 153 7 25 13 27 55 3 65 -10 3 -58 9 -106 12 -65 5 -94 11
-113 25 -41 33 -28 86 26 108 l32 13 -29 12 c-41 17 -60 65 -43 106 19 45 64
69 130 69 30 0 67 -6 82 -14z"/>
<path d="M464 645 c-17 -27 -14 -76 7 -102 16 -18 54 -16 70 3 17 21 17 87 0
108 -20 24 -58 20 -77 -9z"/>
</g>
</svg>
