<svg id="G" xmlns="http://www.w3.org/2000/svg" viewBox="0 0 119.69 160.45"><defs><style>.cls-1{fill:#37a59b;}</style></defs><title>G</title><path class="cls-1" d="M41.35,149.48c-5.93-4-11.82-8.14-17.81-12.11-4.46-3-9.11-5.64-13.54-8.64-9.81-6.62-11.56-11.4-8.87-22.9,1.08-4.63,2.11-9.29,2.77-14,.56-4,.2-8,4.63-10.35.92-.48.9-2.74,1.33-4.18,1.13-3.83.74-8.85,7.07-8.59.53,0,1.78-2.36,1.61-3.45-.32-2-1-4.36-2.33-5.77-4.61-4.81-3.48-9.85-1.67-15.32s3.34-11.35,4.74-17.1c1.12-4.6,4.61-5.5,8.47-6.49,23.31-6,46.59-12.1,69.89-18.16,3.26-.85,7.44-3.3,9.6-2.11,4.53,2.5,8.13,6.8,11.82,10.65.83.87.64,2.93.55,4.41-.7,10.67-1.37,21.35-2.42,32-.13,1.27-2.39,3.19-3.8,3.32-7.92.76-15.92.69-23.81,1.61-8.43,1-9,.74-8.62-7.55.32-6.69.47-13.39.67-20.09.13-4.44-1.87-6.58-6.39-5.37s-9.45,2.09-13.58,4.27c-3.09,1.63-5.3,5-7.71,7.79-1.21,1.39-1.63,3.63-3,4.67-6.34,4.74-7.33,12.21-6.8,18.51,1,11.53-.77,22.7-1.83,34A186.81,186.81,0,0,1,38,113.33c-1.95,8.34.25,15.16,7.2,19.52,8,5,16.62,9.13,25.18,13.2,4.23,2,7.37.14,7.28-4.75-.34-18-.72-36-1.53-53.93-.26-5.79-3.66-8-9.39-7.28-2.24.28-4.37,1.54-6.6,1.76-1.81.18-3.71-.51-5.57-.81,1.17-1.32,2.08-3.3,3.54-3.86,15-5.8,30.51-9.93,46.7-10.62,6.6-.28,7.25.78,7.25,7.12,0,5.47-.23,10.67-4.73,14.7A4.83,4.83,0,0,0,106,92c.78,6.83,1.91,13.61,2.72,20.44.77,6.43,1.57,12.88,1.84,19.34.29,7.07-.23,14.17,0,21.25.19,5.45-1.93,7.47-7.41,7.43-28.91-.16-57.83,0-86.74-.14-3,0-6-1-9-1.51,2.9-1.05,5.73-2.52,8.72-3.08,8.21-1.53,16.48-2.68,24.73-4Z"/></svg>