<svg id="Layer_1" data-name="Layer 1" xmlns="http://www.w3.org/2000/svg" viewBox="0 0 82.87 191.33"><defs><style>.cls-1{fill:#eedfca;}.cls-2{fill:#ece2cf;}.cls-3{fill:#eadac4;}.cls-4{fill:#e4dac7;}.cls-5{fill:#efe8db;}.cls-6{fill:#684123;}.cls-7{fill:#805630;}.cls-8{fill:#e8d6bb;}.cls-9{fill:#d7c8ae;}.cls-10{fill:#774b28;}.cls-11{fill:#91704e;}.cls-12{fill:#714420;}.cls-13{fill:#a3866a;}.cls-14{fill:#d9c09e;}.cls-15{fill:#c7ab8a;}</style></defs><title>Hookg</title><path class="cls-1" d="M19.88,186.2l-.39-.42.56-2.8c1.73.88,3.39,2,5.44,1.87,1.61.44,2.05-.51,2.17-1.84h.87l.65.81c.1,1-.15,2.37,1.59,1.27l0-.71c.3,0,.93,0,.83.19-.66,1.35.48,1.13,1.49,1.75-1.21-2,.4-1.43.92-1.83.14.17.21.53.52.17l-.52-.17c0-.44-.18-.87-.72-.64-.94.4-1.68-.16-2.48-.41.22-.31.52-.59.42-1-1.28.42-.87-1-1.48-1.34l0,0c1.3.12,1.37-1.06,1.23-1.65s-.4-2.62-1.91-.83l-.42,0h0a3.78,3.78,0,0,0-1.53-1.69h-.31l-.5-.45H26c0-.67,0-1.35-.79-1.67h0c0-.32,0-.64-.38-.76-1.23-.17-1.19-1.24-1.4-2.07s-.37-1.95-1.59-2.17l-.06-.78-.23.1.3.68c0,1.53.88,2.76,1.41,4.1l-.8.76c-1.45-.64-1.32-2.38-2.3-3.34l0,0c-1-.93-.19-2.39-1-3.36.11-.9.61-1.74-.08-2.72-.33-.46.13-1.2.69-1.61a23.49,23.49,0,0,0,14.55,3.86,39.91,39.91,0,0,0,13.15-2.46,1.89,1.89,0,0,1,1.05,2.43l-.16.18.2-.14c1.61.14.8,1.17.57,2,1.57.17,1.14-3,3.16-1.49,0-.92-.62-1.35-.86-2,.25-.28.68-.82.73-.79,1.93,1.24,1.71-.29,1.8-1.38.07-.84.62-.9,1.26-.87l1.19.06a.84.84,0,0,0,.79.45l-2.09,3.6c2,.44,1.49-1.21,2-2a1.2,1.2,0,0,0,1.17.86h0a.72.72,0,0,0,.76.84h0l.37.42c0,.44,0,.92-.46,1.19-2.52.61-2.74.93-2.21,3.1.14.5.26,1,.43,1.51.26.8.64,1.35,1.53.62.57-1,.72-1.77-.7-2.05.49-.61,1.82-.66,1.32-1.94l.36,0,1.22.08a1.07,1.07,0,0,0,.73,1.63,7.68,7.68,0,0,0-.54,2.79.62.62,0,0,0-.35.76s.1.07.15.11l.21-.87a2.87,2.87,0,0,0,1.3-.39c-1-.62.91-2.12-.76-2.4l.08-1.19.09-.19-.12.16-.35-.36c-.81-1.7.46-1.19,1.25-1.18H63a.83.83,0,0,0,.36.83v0c.82,1-.94,2.44.65,3.24l0,.81c-.76.5.09,1.09-.08,1.62-.75.29-.69,1.5-1.69,1.51h0c-.13-.32-.27-.3-.43,0l-1.2.34c-.33-1.47-1.57-.61-2.35-.92,0-.32.74-.46.43-.66-.52-.35-.82.1-.91.63H57c-.13-.21-.22-.55-.54-.18L57,176l.36.37,0,.49c-.09.29-.76.36-.51.63s.83-.12,1.25-.23l2.45-.27,0,.77h-.79a.74.74,0,0,0-.83.88c0,.55.36.54.84.52a6.68,6.68,0,0,1,1.54.27c0,.76,1.77-.06,1.08,1.26-.42.25-.41.52,0,.81-.3.55-.45,1.13-1.39,1a2.41,2.41,0,0,0-2.27.85c.12,1.6-1.64,1-2.15,1.81l-4.06.68c-.84.14-1,.51-.44,1.18.56,0,1.2,0,1.13.86l-2.78.24c-1.34-1.34-3.64-.54-4.86-2.19a.79.79,0,0,0-.75,0c-.76.8-2.66.46-2.62,1.35,0,1,1.63.09,2.43.54s1.76,1.41,2.73.82,1.75-.17,2.62-.16c-.09.72-.63.65-1.17.77-2.25.47-4.27-.85-6.46-.74a3.59,3.59,0,0,1-3.16-1.36L40,187c0-.05-.05-.14-.1-.16a.64.64,0,0,0-.8.27c-1.57.54-3.06.84-3.82-1.21-.08-.21-.41-.6-.56-.34-1.08,1.82-2.63.76-4,.74-.13-.17-.2-.53-.52-.18l.51.18a2.91,2.91,0,0,1-.47,1.61h0c-.81.19-1.82.21-1.3,1.53-1.39,2.56-3.71,2.46-5.65-.26.73-.1,1.54.28,2.42-.33-.93-.77-4.27,0-1.78-2.65,0,0,0-.12-.07-.16a5.36,5.36,0,0,0-2.9-1.24C20.11,184.67,20.07,185.58,19.88,186.2Zm23.84-18.13a.6.6,0,0,0-.77-.36s-.08.1-.12.15l.89.22c.29.22.78.41.83.68.15.77.32,1.07.87,1.15.3,0,.5.06.57-.29.16-.76-.3-1.14-.9-1.34A7.43,7.43,0,0,0,43.72,168.06Zm9.92,2.5-.09,1.2c-1.22-1-1,.16-1.21.79a2.85,2.85,0,0,1-.57-.53c-.73-1.21-1.66.45-2.43-.18-.44.88.26,1.14.79,1.52.73.52,1.12,1,.33,1.93a1.24,1.24,0,0,0,.2,2c1,.85,1.62,2.34,3.34,2.18.45,0,.73.22.74.72.06,2.32,1.56,2.09,3.12,1.76.13.22.27.45.57.32.07,0,.11-.3.1-.31-.21-.1-.44-.18-.67-.26a.83.83,0,0,1-.69-.51c-.76-.8,1-2.55-1.07-2.84l-.16-.1.16.1-.45.79-.78-.47c.3-1.92.67-3.85-.48-5.64l.5-2.39c.29-.13.62-.26.58-.64,0-.1-.25-.19-.39-.28l-.19.52-1.18,0-.26-.18C53.23,170.29,53.43,170.43,53.63,170.56ZM46.44,177a7.62,7.62,0,0,1-3.58.26l-.15-.86c-.05,0-.13.06-.15.11a.6.6,0,0,0,.26.78,1.19,1.19,0,0,0,1.42,1.25c1,0,2-.25,2.26-1.46l.17-.22Zm1.43,5c-1.75-.12-3.43-1-5.25-.51,1.51.81,4.38,1.11,7.59.7L48.63,182c0-.53,0-1,.75-1.21.55-.15.5-.79.3-1.15-.3-.53-.64,0-1,.11C47.19,180,48.22,181.25,47.87,182Zm-.1,3.14a1.43,1.43,0,0,0,.17.49c.48.6,3.38,0,3.49-.76.06-.41-.14-.79.46-.65,1.05.25,1.7-.64,2.59-.85.33-.08.94-.21.72-.73s-.54-.43-1.11-.2A44.25,44.25,0,0,1,48.91,184C48.28,184.17,48.06,184.58,47.77,185.1Zm-19.63-16c0,2.24-.87,4.19,1.57,5.48A22.9,22.9,0,0,0,28.14,169.07Zm10.48,8.17c-.61,1.18-1.22,2.35.34,3.65Zm-3.7,2.62a4,4,0,0,0-.66.37,2.19,2.19,0,0,0,1.28,1.33c.3.12.57,0,.61-.29C36.26,180.39,35.32,180.41,34.92,179.87Zm20.91-6.74.41.61c.14-.09.35-.16.39-.29s0-.53-.3-.53A1.48,1.48,0,0,0,55.83,173.13Zm-8.67,11.14a1.13,1.13,0,0,0-.07,1.37A1.31,1.31,0,0,0,47.15,184.26Zm13.28-11.62a1.23,1.23,0,0,0-.17.24s.08.15.11.14a1.33,1.33,0,0,0,.28-.11Zm-2.69,10.61a1.36,1.36,0,0,0-.29-.11s-.13.11-.12.13a1.3,1.3,0,0,0,.17.24Zm-4.52-16c-.07.11-.18.2-.19.3s.08.21.13.32c.07-.09.18-.18.19-.28S53.28,167.33,53.23,167.21Zm1.45-1.32s-.11,0-.12.08,0,.08.06.13l.19-.14Z"/><path class="cls-2" d="M56,98.68c-1.13-1.26-1.22-3-1.61-4.45-1.18-4.62-2.23-9.27-3.79-13.79a6.83,6.83,0,0,1-.36-3.35l0-.86.77.84v.76l.37.43.37,0c-.28,1.2-.27,2.28,1.06,2.89h.39l0,0c.14,1.09-.66,2.37.63,3.24-.11.67-.64,1.33-.08,2,.05,1.06.73,1.89,1,2.86a4.08,4.08,0,0,0,.3,2.46l.73.8-.18.19.2-.17c.8,0,1.71,0,2-.87s-.61-.63-1.07-.75c0-.86.94-.58,1.24-1.06l0,0,.59,1.28c.34-.68-.16-1.57.63-1.88s.52.94,1,1.19A4.16,4.16,0,0,0,61,88.91c.35-.81,1.29-.54,1.93-.84.23,1.05,2.65.89,1.5,2.77-.17.27.39.77.79,1s.33.53,0,.77l-.82.36a3.78,3.78,0,0,0-1.46-2c-.5-.43-1.21-.61-1.59-.06s.38.81.68,1.18.74.43,1.18.45l0,0-.08,1.19-.42.39c-.6.2-.77.58-.46,1.15l-.41.42L61,95.63c-.43-1-1.17-1-1.76-.33-.43.5,0,1.17.55,1.43s1.53,1,1.59-.54l.42-.48a2,2,0,0,0,.38.11.72.72,0,0,0,.7.75l0,.8-.36.36c-.45,0-1,.34-.24.53a6.68,6.68,0,0,0,2.51-.42c-1.4-.78-1.4-.78-.89-2.79l1.95,0a2,2,0,0,0,.86,1.86,9.36,9.36,0,0,1,2.72,4c1,2.68-.55,6.18,2.57,8.12-.29,1.82,1.51,2.36,2.18,3.59,1.09,2,2.16,4.18,1.57,6.49-.28,1.1-.87,1.57.43,2.54a3.79,3.79,0,0,1,1.48,3.48c-1,.2-2.32-1.44-2.8-.08-.34,1,.9,2.18,2.08,2.78l.18.08c.63.6.25,1.35.3,2l-.54.16.51.23,0,0,.34.38.05.06.34.37,0,0a.72.72,0,0,0,.33.77l0,.05c.11.8.08.91-.48.78s-.38.19-.39.39c-.06,1.06.2,1.85,1.52,1.65l.4,0c1.15,1.84.94,2.59-1,3.6l-.4,0c.14-.8,1-1.83-.68-2-1.62-.88-2.79-3-5.14-1.91-.73-.72-.23-1.59-.29-2.39.4-.07.86.21,1.34-.26-.57-.09-1-.22-1.35.25-1.23,1-1.15,2.12.24,3.24-.32.5-.48,1.17-1.27,1.14-.61.18-1.18-.54-2.13,0,1.32.33,1.38,1.14,1.23,2l-.57,3.5-.45.78c-.66.17-1.57-1.28-2,.3l-.85.75c-1.38.24.25.55,0,.82-.11,2.47,0,2.53,2.29,2.13h0l.79.05.36.81c-1,1.56-1.43,3.51-3,4.69h0c-.81.05-1.76-1.31-2.44.23H63.4c.14-.9-.28-1.28-1.15-1.24,2.05-4.3,2.21-8.92,2.31-13.56.72,0,1.26.23,1.33-1a31.75,31.75,0,0,0-.21-5.27c-.07-.6,0-1.28.91-1.22.73.05,1,.52,1.07,1.21.06.86-.29,1.78.37,2.61.45-1.64,1.3-3.59,1.06-4.81a40.1,40.1,0,0,1-.54-7.6c0-.92-.52-2.15-1.19-2-2.12.61-1.56-.61-1.58-1.75-.07-3.7-.11-3.7-3.29-3.2a.91.91,0,0,1-.9-.17c-.59-.55-.72.34-1.12.42v-.78a8.11,8.11,0,0,0-.33-5.82c-1.18-3.26-2.24-6.55-3.35-9.83C56.53,97.78,56.27,98.75,56,98.68Zm6.11-9-.16-.1.16.1.17.1Zm12.64,37.25a.57.57,0,0,0-.06-.14s-.07,0-.11,0l.17.17c.06.73-.44,1.74,1.26,2.21ZM59.47,93.58a.81.81,0,0,0,.78.44c.23-.22.45-.46.69-.67.66-.57-.17-.9-.31-1.25s-.21.17-.31.31c-.39-.13-.77-.67-1.2-.06-.38.22-1.09.27-1,.77C58.25,93.82,59,93.44,59.47,93.58ZM58.3,95.4c.06-.66.25-1.35-.83-1.34-.79,0-1.56.14-1.54,1.07a1.45,1.45,0,0,0,1.31,1.65C58.7,97,57.85,95.79,58.3,95.4Zm12.26,34.89a2,2,0,0,0-.64.32.23.23,0,0,0,.21.37,3.8,3.8,0,0,0,.81-.36Zm-4.54-18-.33-.16c-.05.11-.17.24-.14.32s.2.11.31.17ZM59.46,89.85c-.07.11-.17.2-.18.3s.08.21.13.32c.06-.09.17-.18.18-.28S59.51,90,59.46,89.85Zm14.08,36.31-.16.09.09.15.24-.16Z"/><path class="cls-3" d="M62.24,151.27c.87,0,1.29.34,1.15,1.24-.88,1.74.64,2.12,1.6,2.76.49.33,1.22.2,1.3-.38.19-1.24-.68-1.87-1.73-2.27a3.38,3.38,0,0,0-.38-.1c.68-1.54,1.62-.17,2.44-.23-.09,1.77,1.54,2.37,2.37,3.81.12-1.54-1.3-3.62-2.37-3.81,1.61-1.18,2-3.13,3-4.69a.81.81,0,0,0,.46-.78c.28-.12.29-.25,0-.39-.12-.49-.6-1.11.51-1a17.12,17.12,0,0,0,1.95-.06c-.29.26-.53.62-.87.75-.63.24-1.13.62-.68,1.23.58.81.95,0,1.32-.39l1-1.16a13.51,13.51,0,0,0,4.07-.35c-.67-.75-2.16.36-2.4-1.17a.67.67,0,0,0,.38-.75,2.94,2.94,0,0,0,.56-2h.41c1.09-.77,2.71-1.17,2.15-3.08,1.93-1,2.14-1.76,1-3.6a1.79,1.79,0,0,1,2.34.12q0,.41,0,.82c-.65,1.3-.09,2.74-.43,4.09-.11.43.51.69,1,.75-.11,2.4.45,4.78.39,7.15-.09,3.45-.58,6.89-.89,10.34a35,35,0,0,1-4.73,14.66c-2.22,3.78-4.4,7.63-8.08,10.28-.44-.65-1.71-.54-1.55-1.72a9.72,9.72,0,0,1,1.57-2.24c.81-.83,0-.89-.62-.93-.44-.31-.34-.77-.32-1.21a7.2,7.2,0,0,0,1.6-.79c.69-.58.8-1.22-.28-1.57h0l0-.8.8,0c.12.28.26.3.41,0l.42-.38c.84.14,1-2.27,2.21-.46.5-1.76-.12-3.64,1.23-5.05.12-.57.08-1,1.06-.93s1.83-.38,1.09-1.84a21.59,21.59,0,0,0-2.21-3.22c0-.18-.05-.51-.1-.52-.37,0-.23.31-.31.5-.67-.15-2.13,1.18-1.67-.73-1.46,1.07-1.56,2.9-2.18,4.51a1.21,1.21,0,0,1-.84.78c-.4.11-.8.25-.69.78s.65.35,1,.53c1.54.86,2.15-1,3.33-1.14l.08.09-.12,1.6c-.18.92.22,1.94-.49,2.77l-.44-.51c.58-1,.14-1.46-.83-1.67-.26-.06-.25,0-.41,1.18-.06.41-.45.44-.78.49h0c0-.4,0-.93-.46-1s-.26.51-.3.81l-.37.07c-.19-.26-.37-.52-.56-.78-.31-.42,0-1.31-1-1.23a.88.88,0,0,0-.81.75c-.13.63-.37,1.36.73,1.33,0,.86,1.53.82,1.06,1.91l-2.37-.93-2.72-2.15v0a.85.85,0,0,0-.36-.83h-.4c-1.3-.12-1.89-1.5-3.11-1.76l-.43,0h0a.73.73,0,0,0-.76-.84h0c-.15-.61-.08-1.53-1.17-.86-.51.78,0,2.43-2,2l2.09-3.6c.37-.5,1.4-.83.4-1.66-.09-.64,1.24-1,.48-1.66s-1.07.45-1.62.68c-.12.05-.23.12-.35.18l.06-1.21c1.36-1.8,2.65-3.65,4.1-5.37C61.12,153.48,61.49,152.27,62.24,151.27Zm10.87,8.19a.59.59,0,0,0-.07-.16s-.08,0-.12,0l.2.18.37.43.39.41.15.24s0-.1,0-.13a.63.63,0,0,0-.16-.1l-.38-.43Zm-3.69-7h0l.08-.5.77-.27.28,3.2c.62-1.56.47-2.44-.26-3.22-.09-.44.06-1.1-.79-.83-1.31.23-.68,1.29-.86,2,.29.48.56.36.83,0,0,0,.14-.1.14-.11A2.58,2.58,0,0,0,69.42,152.44Zm-7.48,12.88a.66.66,0,0,0-.35.79s.09.08.14.12l.25-.87.16-.19Zm3.17-6.66-.94.11c0,.06.05.15.1.17a.65.65,0,0,0,.84-.28c.33,0,.65,0,.83-.36.75-.05,1.55.35,2.21-.37-.73.19-1.7-1.5-2.22.36C65.6,158.29,65.28,158.31,65.1,158.66ZM67.67,164l.26.67.25-.15-.53-.5.1-2C67.72,162.7,66.47,163.44,67.67,164Zm-4.46-7.85.43.32.12-.14-.52-.21a2.22,2.22,0,0,0-2-1c-.52,0,.25.5.11.69-.41.61-.51,1.58-.07,1.73.81.29.75-.86,1.2-1.27C62.63,156.18,63,156.21,63.21,156.16Zm-2.28,7.14c1.46,0,3.83-1.55,3.75-2.39,0-.49-.12-1.22-.9-1-1.29.36-2.9.3-3.46,1.85C60.17,162.17,60.74,162.85,60.93,163.3ZM80.41,144.1a4.17,4.17,0,0,1-.16.91c-.81,2,.86,4.44-1.22,6.18-.29.25-.1.66.14.89.39.37.76.06,1-.21a3,3,0,0,0,.64-1.84C81.09,148,80.52,146.1,80.41,144.1ZM69.75,164.77s0-.12,0-.14a.21.21,0,0,0-.17,0c-.16.08-.14.17,0,.22S69.69,164.79,69.75,164.77Zm-8.38,2.52-.09-.14-.13.11.16.18Zm18.79-27.7.13-.09-.1-.12-.17.14Zm-8.4,18.86.07-.08-.1,0Z"/><path class="cls-4" d="M81.9,134.94a1.79,1.79,0,0,0-2.34-.12l-.4,0c-.42-1.28,1.42-2.3.42-3.67-.44.18-.06,1.42-1.07.85l0-.05a.7.7,0,0,0-.33-.77l0,0-.34-.37-.05-.06-.34-.38,0,0q0-.2,0-.39c-.06-.69.32-1.44-.3-2,0-.69-1.38-1.67.41-2,.09,0,.09-.49.13-.74a3.79,3.79,0,0,0-1.48-3.48c-1.3-1-.71-1.44-.43-2.54.59-2.31-.48-4.46-1.57-6.49-.66-1.23-2.47-1.77-2.18-3.59-3.12-1.94-1.58-5.44-2.57-8.12a9.36,9.36,0,0,0-2.72-4A2,2,0,0,1,65.82,95c.22-.3.51-.57.41-1,.27-.95-.82-.82-1.08-1.36.37-.24.38-.53,0-.77s-1-.78-.79-1c1.15-1.88-1.28-1.72-1.5-2.77-.64.3-1.58,0-1.93.84a4.16,4.16,0,0,1-.68,1.59c-.48-.26-.07-1.55-1-1.19s-.29,1.2-.63,1.88l-.59-1.28c0-1.31-.17-2.55-1.47-3.29l0,0c.43-1,.87-1.46-.13-2.9s-2.4-1.39-3.2-2.47l0,0c-.12-.24-.25-.24-.39,0-1.33-.6-1.34-1.69-1.06-2.89.73-.34,1.8-.3,1.7-1.55a1.65,1.65,0,0,0,2-.25h0c.69,0,1.44.36,2-.31h0l2,.08c1.95-.86,2.23-2,1-4l-.36-.05.5-1.52.9.22c.66,4.88,3.08,9.19,4.52,13.82.94,3,2.2,6,3.28,9,1.84,5.05,3.48,10.18,5.47,15.18,1.39,3.49,2.29,7.17,3.47,10.75,1.37,4.17,2.31,8.44,3.33,12.7A4.83,4.83,0,0,1,81.9,134.94ZM59.48,82.05a1,1,0,0,0-.81-1.19c-.72-.19-1,.6-.93,1a4.84,4.84,0,0,0,1.11,2.8c.74.72,1-.1,1.4-.45.54-.5.18-.85-.34-1C59.14,83,58.51,82.86,59.48,82.05Zm19.08,46.44c-.05.11-.17.24-.14.32s.2.11.31.17c.05-.11.17-.24.14-.32S78.67,128.55,78.56,128.49Z"/><path class="cls-2" d="M4.7,158.9c-1.8-2.85-2.5-6.12-3.39-9.29A39.07,39.07,0,0,1,0,141c.87-.29,1.74-1.06,2.74.29a9.47,9.47,0,0,0-1.36,1c-.36.38-.32.77.21,1.15a9.34,9.34,0,0,0,5.53,1.79c1.4-3.67-.67-7-.43-10.6-.73,0-.75.89-1.27,1.14a1.1,1.1,0,0,1-.75.09.38.38,0,0,1-.13-.65C5.7,134,6.4,132.33,8.48,132c1.45-.24,3.15-.85,3-3.08-.13-1.91.39-3.84-.09-5.77-.22-.88.23-1.41,1.22-1.28a40.21,40.21,0,0,0,.13,10.54,57.81,57.81,0,0,0,2.12,9.45c.75,2.18-.51,3.3-2.2,4.2-.44-.52-1-1.08-1.65-.72s-.42,1.18-.36,1.81a10.88,10.88,0,0,0,.47,2.5c.62,1.75,1.68,3.49-.5,4.94,0,0,0,.13,0,.19-1.19.69-2.24,1.41-1,3,.05.06-.24.4-.37.6-.42,0-1-.24-.94-.57.4-2-1.68-3.27-1.46-5.26.09-.83-.9-1.25-1.62-1.55-.39-.16-.77.15-.83.63-.18,1.67.2,3.73,1,4.6a3.4,3.4,0,0,1,1,2.82ZM10,150.7c-.75.25-1.79,0-2,1.13,0,.24,0,.67.34.58A2.56,2.56,0,0,0,10,150.7l.1-.17Zm-6.65-3.2c0,.27,0,.57.27.66s.41-.23.46-.48,0-.57-.27-.66S3.38,147.26,3.31,147.5Zm1,1.86c-.05.11-.17.24-.14.32s.2.12.31.17c.05-.11.17-.24.15-.32S4.39,149.42,4.28,149.37Z"/><path class="cls-5" d="M12.6,121.86c-1-.13-1.44.4-1.22,1.28.49,1.93,0,3.85.09,5.77.16,2.23-1.53,2.84-3,3.08-2.08.34-2.78,2-3.95,3.2a.38.38,0,0,0,.13.65,1.1,1.1,0,0,0,.75-.09c.53-.25.54-1.11,1.27-1.14-.24,3.56,1.83,6.93.43,10.6a9.34,9.34,0,0,1-5.53-1.79c-.52-.38-.56-.77-.21-1.15a9.47,9.47,0,0,1,1.36-1c-1-1.35-1.87-.58-2.74-.29,0-5.7,1.76-10.91,4-16.06a16.44,16.44,0,0,1,5.41-6.44c1.5-1.16,2.81-.52,3.27,1.4-1.54.47-.73,1-.07,1.6Q12.61,121.66,12.6,121.86ZM4.07,136.63c-.11-.05-.24-.17-.32-.14s-.11.2-.17.31c.11.05.24.17.32.14S4,136.73,4.07,136.63Z"/><path class="cls-6" d="M68.18,43.38c-1.32.26-2.44-.39-3.6-.81a3.75,3.75,0,0,0-4.8,2.64c-.78,3-.66,6.07-1.29,9.06-.36,1.7.6,3.33.6,5-.3.07-.72.06-.65.5,0,.17.36.28.55.42l.05,0c.34,1.55-1.05.85-1.61,1.19.2,1.17,2,.39,2,1.9a9.26,9.26,0,0,0-3.32.37.89.89,0,0,0-.81-.5c-1.38,0-2.39,0-1.87-2.09.17-.66,1.83-1.94.07-2.84,1.72-1,.06-1.31-.73-2,1.35-.05,2.87.15,2.88-.92a1.89,1.89,0,0,0-2.56-1.83A2.52,2.52,0,0,0,54,50.2c-.23-.51-.94-.49-.87-1.28.19-2.33,1.83-2.11,3.38-2.16,0,.7.7,1.15.73,1.89.67-1.25.41-2.57.58-3.83l.8,0c.14.16.21.52.52.17l-.51-.18c-.08-.37.24-1-.45-1-.41,0-.31.6-.36,1l-.77.32c-.26-.39-.87-.56-.77-1.19h.36c1-.06,1.11-.82,1.3-1.55.56-.3,1.13-.68.61-1.35-.37-.47-1-.27-1.45,0s-1.3.73-1.2,1.64c-1.55.71-3,2-4.87.95.19-.79.81-1,1.47-1.38a5.19,5.19,0,0,0,2.76-2.43,2,2,0,0,0,1.12-.44c.75-.5,1.24-1.65,2.4-1.39,1.32.3,1.89-.43,2.27-1.51,2.35-.1,4.12-1.61,6.16-2.47l.66,0,.07.08-.43,1.38c-.88.74-.1,1.48.07,2.16C68.07,39.59,68.8,41.41,68.18,43.38Z"/><path class="cls-7" d="M55.3,39.86a5.19,5.19,0,0,1-2.76,2.43c-.66.35-1.28.59-1.47,1.38h0c-.43.23-.64.82-1.24.77-2.53-.18.17-1.57-.51-2.21-.56.15-1,.65-1.64.49a2.17,2.17,0,0,0-.09-2c.74-1.36.39-2.95.91-4.35a3.86,3.86,0,0,0,.36-.66c.66-2,0-4.14.48-6.18l.43-.38.11-.11-.09.12-.42.39-1,.35.1-.8c.79-.24.94-.87,1-1.57l.1-.11-.09.12c-.34,0-.47.91-1,.23v-.67c.74-.23.88-.89,1-1.52l0-.89,0-.06a1.86,1.86,0,0,0,1.3-.26.62.62,0,0,0,.77.35s.07-.1.11-.15l-.87-.21a2.86,2.86,0,0,0,1-3.17c-.69-2.21.54-3.65,1.88-5.1.4-.43.88-.56,1.19-.2.49.57-.31.47-.5.71s-.23.36.8.73c-1.42.62-.68,3-2.57,3.2a1.49,1.49,0,0,0,.17.28c1,1,1,2.53,1.63,3.71l0,0c.41,1.14,1.26,2.38-.69,3a5.89,5.89,0,0,1,.31.71c.31,1.07,1.33,1.66,1.85,2.68.4.79-.58,1.76.51,2.17v0c-.07,1.89-.6,3.45-2.68,4-.4.11-.42.62-.29,1C55.17,37.53,54.28,39.72,55.3,39.86Zm-2.63-1-.06.14.2,0a.39.39,0,0,0,0-.15S52.71,38.82,52.67,38.81Zm2.77-4.18s0-.11-.08-.13-.08,0-.13.06l.14.2Z"/><path class="cls-5" d="M60.45,114.94c.4-.08.53-1,1.12-.42a.91.91,0,0,0,.9.17c3.18-.5,3.22-.49,3.29,3.2,0,1.14-.54,2.36,1.58,1.75.67-.19,1.19,1,1.19,2a40.1,40.1,0,0,0,.54,7.6c.24,1.23-.61,3.18-1.06,4.81-.66-.84-.31-1.75-.37-2.61,0-.69-.34-1.16-1.07-1.21-.9-.06-1,.62-.91,1.22a31.75,31.75,0,0,1,.21,5.27c-.07,1.25-.61,1-1.33,1,.4-1.59-.24-3.12-.33-4.68C63.86,126.84,62.19,120.88,60.45,114.94Z"/><path class="cls-8" d="M9.17,158.31c.13-.21.42-.54.37-.6-1.21-1.54-.15-2.26,1-3-.49.95,1.72-.21.87,1.15a1.38,1.38,0,0,0,.34,1.94c.66.44,1.25,0,1.81-.34.4-.21.74-.55,1.24-.51a2,2,0,0,1,.94,1.21,15.36,15.36,0,0,0,4,5.45c-.56.41-1,1.15-.69,1.61.69,1,.2,1.81.08,2.72l-.83.45c-.8-1.33,0-3.19-1.5-4.44l-.39,1.52-.8,0-.38,0-.45,0h-.36c-.52-.29-.74.59-1.25.33.87-1.4-1.69-2.57-.17-4.08-.69.42-2-.6-2,1l-.91-.28c0-.56.13-1.2-.89-1.13l.89,1.13v.77c-.28.13-.63.23-.58.62,0,.09.31.15.48.22-.18,1.37,1.12,2.32,1.05,3.66v0c0,.59,0,1.17-.87,1.16l-2-.52c-.45-.29-.39-.75-.39-1.19.24-.93-.38-1.32-1-1.69-.51-1.67-1.87-3-1.8-4.92.61-.58.14-.71-.35-.84l0-.78,1.62.08a.86.86,0,0,0,.36.83c.49,1,1,1,1.63.09A1.43,1.43,0,0,0,9.17,158.31Z"/><path class="cls-8" d="M67.6,181.31c-.15,1.18,1.11,1.08,1.55,1.72a17.86,17.86,0,0,1-8.28,5.27c-7.21,2.33-14.55,2-21.94.76a53.83,53.83,0,0,0-8.67-1.12,2.91,2.91,0,0,0,.47-1.61h0c1.38,0,2.94,1.07,4-.74.15-.26.49.13.56.34.77,2,2.25,1.75,3.82,1.21l0,0a3.59,3.59,0,0,0,3.16,1.36c2.19-.11,4.21,1.21,6.46.74.54-.11,1.08,0,1.17-.77h0l.38-.35.06-.06,2.78-.24c.74,0,1.53.2,2.1-.47-.12-.46-1,.09-.81-.7l.84-.35c.88,0,.6,1,1.13,1.28.62.74,1.5.53,2.24.47,2.81-.24,3.64-1,3.53-3h.29c.34-.06.4-.19.1-.4-.64-.38-1.27-1-2-.09l-.85-.06c.54-1.22-.24-1.25-1.09-1.21a2.41,2.41,0,0,1,2.27-.85c.94.11,1.09-.47,1.39-1h0a1.13,1.13,0,0,0,1.24-.74h0c1.29.53,1.9-.86,2.93-1.06Zm-1.18,3c-.5-.46-.88-.82-1.42-.37-.21.18-.35.45-.11.65C65.41,185,65.84,184.62,66.43,184.32Z"/><path class="cls-6" d="M63.39,6l.35.5a3.65,3.65,0,0,0-.83,2.33c-.2,1.51-1.86,2.41-1.7,4a3,3,0,0,1-.67,2.31L58.38,14l1.77-.88-1.39-.07L57.68,13c1.42-1.16,1.91-2.24,1.5-3.15a2,2,0,0,1,1.75-1.35c-.76,0-1.46-1.08-2.2,0-.09.14-1.27.35-1.1-.41.31-1.45-.81-.5-1.13-.82-.05-.18.09-.49-.25-.48-.06,0-.11.3-.16.46-.21,1.62-1.57-.14-2,.7h0l-.73-.44c-.1-.7-.17-1.4-.31-2.08-.05-.26.24-.74-.26-.73-.18,0-.35.47-.53.73L51.6,3C51.44,1.5,51.94.76,53.68.81c.71,0,1.64.28,2.39-.55.58-.64,1.17,0,1.49.69.7,1.41.34,3,.56,4.43.16,1.06.45,1.29,1.49,1C60.82,6,62.07,5.25,63.39,6Zm-7.47-.37a32.65,32.65,0,0,1,.71-3.31l-.54-.05Z"/><path class="cls-9" d="M53.48,76.75c.1,1.25-1,1.21-1.7,1.55l-.37,0L51,77.84q0-.38,0-.76c.46-.43,1.36-.87.71-1.53-.47-.48-1.14.1-1.48.69l0,.86a4.83,4.83,0,0,1-.72-2.45c-.19-1.75-.68-3.26-2.62-3.8-.05,0-.13-.1-.12-.13a1.91,1.91,0,0,1,.16-.29c.55-.12,1.35.31,1.53-.67.62.55,1.4.34,2.11.46-.44.61,1.19.55.42,1.32-.26.26-1.12.33-.57,1a1.37,1.37,0,0,0,1.62.41c.61-.23,1.67-.63,1.86-.41,1.26,1.55,2.57,0,3.83.13l-2-.23c1.71-.17,3.11-.63,3.36-2.62l.4.05c-.28,1.18.56.91,1.18.93l-.5,1.52c-.5.09-1.15-.34-1.57.52a2.25,2.25,0,0,0,1.93-.47c1.26,1.94,1,3.09-1,4-1.68-1.34-1.68-1.34-2-.08h0a7,7,0,0,1-1.08-.47c-1.16-.74-1.11-.06-1,.78h0C54.79,76.31,54.07,76,53.48,76.75Z"/><path class="cls-10" d="M59.18,9.87c.41.91-.08,2-1.5,3.15l1.09.05,1.39.07L58.38,14l2.16,1.16,0,1.16c-.63.37-1.21,1-1.67,1.29-.86.47-.31,2.15-1.75,1.81-.51-.78.37-1.48.1-2.54-.57,1.39-1.3.71-2,.43-1-.37-1.07-.4-.8-.73s1-.14.5-.71c-.31-.36-.8-.22-1.19.2-1.34,1.45-2.57,2.89-1.88,5.1a2.86,2.86,0,0,1-1,3.17h0a1.86,1.86,0,0,1-1.3.26c.28-1.37-1-2.87.48-4.19.38-.34-.78-.15-.79-.69l.48-.7c.34-.18.32-.46.22-.76l-.15-.77c.92.1.12-1.42,1.1-1.2,1.32.29,1.77-.4,2.13-1.51.14-.43.3-1.21,1.11-1.2.31.65.8,1.12,1.53.85.9-.33.43-1.24.6-1.88.75-.08.39-1.81,1.66-1.12l.17.1-.16-.1C58.76,11.26,56.42,8.45,59.18,9.87Z"/><path class="cls-11" d="M60.51,16.33l0-1.16a3,3,0,0,0,.67-2.31c-.16-1.57,1.5-2.48,1.7-4a3.65,3.65,0,0,1,.83-2.33C65,8.14,64,9.76,63.34,11a7.81,7.81,0,0,0-.39,5.79c.72,3,1.19,5.93,1.63,8.94a20.4,20.4,0,0,0,2.62,7.2l-.33.28-.79,0-.29-.49-.42-.45c-.07-.39-.23-.72-.68-.8l-.08-.8c-.18-.69.5-1.65-.64-2l-.08-.75-.36-.47,0-.75c0-.44.25-.92-.23-1.27l0-.4-.36-.83c.52-.56-1.21-1.49.35-2,.25-.07.05-.72-.55-.56s-1,.22-1.55.33c0-.82-.9-.65-1.21-1.11.94-.36,2.09-.11,3-1-1.1-.13-1.41-1.54-2.05-1.31,1.36,0-.64-1.65.37-2.1Zm1.75,1.94-.09-.07,0,.1Z"/><path class="cls-12" d="M59.18,9.87c-2.76-1.42-.42,1.39-1.28,1.54h0c-1.27-.69-.91,1-1.66,1.12h0C56,12,55,12.16,55.09,11.28l.1-.17-.11.16c-1.19.26-3.06-1.07-3.29,1.41-.61,0-1.22.07-1.16-.83a.57.57,0,0,0,.14-.06s0-.07,0-.1l-.16.17c-1.11.48-1.8.36-1.48-1.09l.17-.52,3.24-2.3.75-.38L54,8c.08.59-.33,1.3.39,1.75-.18-.57.24-1.28-.38-1.76.47-.84,1.84.92,2-.7l.41,0c.32.32,1.44-.63,1.13.82-.16.76,1,.55,1.1.41.74-1.12,1.45-.05,2.2,0A2,2,0,0,0,59.18,9.87ZM55.85,9.2c-.11-.05-.24-.17-.32-.14s-.11.2-.17.31c.11.05.24.17.32.14S55.79,9.31,55.85,9.2Z"/><path class="cls-4" d="M14.83,157c-.5,0-.84.3-1.24.51-.56.29-1.15.78-1.81.34a1.38,1.38,0,0,1-.34-1.94c.85-1.36-1.36-.2-.87-1.15,0-.07,0-.17,0-.19,2.17-1.45,1.11-3.19.5-4.94a10.88,10.88,0,0,1-.47-2.5c-.06-.62-.32-1.44.36-1.81s1.22.21,1.65.72c-.57,3.44,1.08,6.44,1.85,9.62C14.6,156.11,14.72,156.55,14.83,157Z"/><path class="cls-1" d="M8.31,168.32l2,.52c-.49.82-.07,1.12.7,1.22.9,1.51,1,3.51,2.65,4.57h0c-.29.75-.43,1.4.76,1.25.49.43,0,1.32.72,1.63.28,2.41,2.61,3.26,3.79,5-1,.1-.86.9-.9,1.58-2.14-1.82-3.31-4.32-4.57-6.72C11.81,174.28,9.41,171.66,8.31,168.32Z"/><path class="cls-13" d="M59.08,59.3c0-1.7-1-3.33-.6-5,.63-3,.51-6.09,1.29-9.06a3.75,3.75,0,0,1,4.8-2.64c-2.66.32-3.48,1.67-4.06,4.14-1,4.43-.49,8.8-.24,13.2a2.3,2.3,0,0,1-.24.75l-1-.4-.05,0Z"/><path class="cls-9" d="M68.18,43.38c.62-2-.11-3.79-.57-5.66-.17-.68-1-1.42-.07-2.16.47.17.83-.12,1.22-.29a3.87,3.87,0,0,0,1.34,1.68c1.49,1.28,1.47,2.72.88,4.46C70.48,42.87,69.78,43.66,68.18,43.38Z"/><path class="cls-9" d="M63.39,6c-1.33-.8-2.57-.06-3.78.3-1,.31-1.33.09-1.49-1-.22-1.47.15-3-.56-4.43C61.68,1.52,62.41,2.17,63.39,6Z"/><path class="cls-2" d="M57.62,161.84c1,.83,0,1.17-.4,1.66a.84.84,0,0,1-.79-.45c-.37-.53-.77-.55-1.19-.06-.64,0-1.19,0-1.26.87-.08,1.08.13,2.62-1.8,1.38-.05,0-.48.51-.73.79-.36-.71-1.59-.66-1.54-1.73,1.77-1.95,4.31-2.81,6.27-4.47L56.14,161C56.32,161.88,56.95,161.91,57.62,161.84Z"/><path class="cls-13" d="M46.51,56.27c-.3-1.76.39-3.43.51-5.16a4,4,0,0,0-.64-3.23,1.68,1.68,0,0,1,.9-2.79c.9.25-.15,1.79,1.17,1.75l-.38.75c-.12.12-.36.27-.34.36.12.51.63.34,1,.47.2,1.32-1.52,2.8.31,4-1.86.09-.49,1.73-1.14,2.47-.2.23.58.28.92.39a.5.5,0,0,1-.06.3c-1.44.61,0,2-.77,2.8-.92-.51-.1-1.53-.64-2.14-.17-.19.18-.73-.36-.58C46.76,55.72,46.66,56.06,46.51,56.27Z"/><path class="cls-5" d="M56,98.68c.3.07.56-.89.81-.15,1.11,3.28,2.17,6.57,3.35,9.83a8.11,8.11,0,0,1,.33,5.82c-1.7-3.94-2.34-8.21-3.74-12.25C56.36,100.88,55.75,99.86,56,98.68Z"/><path class="cls-11" d="M59,60.26l1,.4,1.48,8.09c-.24.57-.27,1.46-1.3.88,1.18-1,.2-1.51-.49-2.07-.45-.36-1.21-.53,0-1.09.74-.36,0-1.18-.06-1.79,0-.15.16-.62-.33-.36-1.06.57-2.12,0-3.17,0v-.63a9.24,9.24,0,0,1,3.32-.37c0-1.51-1.83-.72-2-1.9C58,61.11,59.38,61.81,59,60.26Z"/><path class="cls-14" d="M52.56,7.94l-3.24,2.3c-.91-2.15.16-5.53,2.28-7.2l.6,2.44Z"/><path class="cls-11" d="M49.15,10.77c-.31,1.46.37,1.57,1.48,1.09h0c-.05.89.55.87,1.16.83l2.34.58a1.47,1.47,0,0,1,0,.31c-.8,0-1,.77-1.11,1.2-.37,1.11-.82,1.81-2.13,1.51-1-.21-.18,1.3-1.1,1.2-.34-1.44-.7-2.88-1-4.33C48.55,12.31,48.34,11.45,49.15,10.77Zm3,3.53c0-.35-.1-.66-.5-.7s-.65.31-.67.74.08.67.49.7S52.09,14.74,52.11,14.3Zm-1.47,1.45.07-.09-.1,0Z"/><path class="cls-12" d="M48.45,46.85c-1.32,0-.27-1.51-1.17-1.75l-.18-.79c.48-.42.35-1.07.57-1.59.64.17,1.09-.33,1.64-.49.67.64-2,2,.51,2.21a.84.84,0,0,0,.38.83c.37.69,1.3.15,1.78.83,0,.54-1.24.78-.55,1.54.22.24,1,.06.76.63s-.83.57-1.37.61a4.82,4.82,0,0,1-2.11-.46c-.34-.13-.84,0-1-.47,0-.09.22-.24.34-.36a1.86,1.86,0,0,0,2,.29,1,1,0,0,0-.06-.67C49.59,46.78,49.18,46.06,48.45,46.85Z"/><path class="cls-11" d="M48.45,69.75c-.18,1-1,.55-1.53.67,0-2.41-.58-4.83.34-7.19l.38-.42c1,.41,1.75.88.78,2.06-.73.88.74,1.49.6,1.58C47.52,67.37,48.67,68.67,48.45,69.75Z"/><path class="cls-8" d="M19.88,186.2c.19-.62.23-1.53,1.11-1.36a5.36,5.36,0,0,1,2.9,1.24s.09.14.07.16c-2.49,2.66.85,1.88,1.78,2.65-.88.62-1.68.23-2.42.33h0a.78.78,0,0,0-.77-.46C21.24,188.35,20.64,187.19,19.88,186.2Z"/><path class="cls-3" d="M49.92,164.3c0,1.08,1.18,1,1.54,1.73s.85,1,.86,2c-2-1.47-1.59,1.66-3.16,1.49.22-.78,1-1.82-.57-2l0,0a1.89,1.89,0,0,0-1.05-2.43A4.39,4.39,0,0,1,49.92,164.3Z"/><path class="cls-13" d="M47.64,62.81l-.38.42a22,22,0,0,1-1.55-4.17c-.13-.65.27-.6.61-.73,1-.23.33,1.6,1.48,1.24.2.59-.37,1.56.8,1.7l0,0C48.18,61.72,47.57,62.06,47.64,62.81Z"/><path class="cls-13" d="M49.2,19.72c0,.55,1.17.35.79.69-1.48,1.32-.2,2.82-.48,4.19l0,.06a.64.64,0,0,0-.61.58c0,.09.37.21.57.31-.17.63-.3,1.28-1,1.52C47.92,24.54,48.66,22.14,49.2,19.72Z"/><path class="cls-13" d="M49.35,29.49c-.45,2,.18,4.16-.48,6.18a3.86,3.86,0,0,1-.36.66c.2-2.16-.6-4.3-.1-6.46l1-.35Z"/><path class="cls-15" d="M47.8,59.57c-1.14.36-.44-1.47-1.48-1.24l.19-2.06c.14-.21.25-.55.44-.6.54-.15.19.39.36.58.54.6-.27,1.63.64,2.14S47.91,59.18,47.8,59.57Z"/><path class="cls-8" d="M18,184.06c0-.67-.14-1.47.9-1.58l0,0c.25.53.74.46,1.19.47h0l-.56,2.8A4,4,0,0,1,18,184.06Z"/><path class="cls-4" d="M82.47,140.6c-.49-.06-1.11-.32-1-.75.34-1.35-.22-2.79.43-4.09A9.74,9.74,0,0,1,82.47,140.6Z"/><path class="cls-15" d="M60.22,69.63c1,.57,1.05-.31,1.3-.88,1.19.74.75,1.49,0,2.23l-.9-.22c-.62,0-1.47.25-1.18-.93Z"/><path class="cls-13" d="M47.67,42.72c-.23.52-.09,1.16-.57,1.59a9.18,9.18,0,0,1,.48-3.63A2.18,2.18,0,0,1,47.67,42.72Z"/><path class="cls-8" d="M29,189.48c-.52-1.32.49-1.34,1.3-1.53A2.07,2.07,0,0,1,29,189.48Z"/><path class="cls-1" d="M6.88,165.44c.67.36,1.28.76,1,1.69C7,166.94,6.71,166.32,6.88,165.44Z"/><path class="cls-13" d="M49.45,27.49c0,.71-.17,1.34-1,1.57a1,1,0,0,1,0-1.33c.5.68.63-.22,1-.23Z"/><path class="cls-11" d="M68.76,35.27c-.39.17-.75.46-1.22.29L68,34.18C68.56,34.31,68.64,34.8,68.76,35.27Z"/><path class="cls-2" d="M12.61,121.46c-.67-.56-1.47-1.13.07-1.6Z"/><path class="cls-11" d="M67.91,34.11l-.66,0a.75.75,0,0,0-.34-.07l0-.78.33-.28A1,1,0,0,1,67.91,34.11Z"/><path class="cls-13" d="M49.91,18.25c.09.3.12.59-.22.76C49.18,18.59,49.8,18.5,49.91,18.25Z"/><path class="cls-2" d="M4.73,159.68c.49.12,1,.26.35.84A.74.74,0,0,1,4.73,159.68Z"/><path class="cls-1" d="M22.56,188.76a.78.78,0,0,1,.77.46A.83.83,0,0,1,22.56,188.76Z"/><path class="cls-5" d="M15.1,177.5c-.75-.32-.23-1.2-.72-1.63q0-.58,0-1.16l.18-.18-.2.16-.75-.08h0l.11-.4s.12-.12.11-.14a2.1,2.1,0,0,0-.21-.25h0a.74.74,0,0,0-.37-.83l-.39-.83.85,0,.43.32.11-.14-.52-.2c0-.81-.6-.83-1.18-.85h0c0-.45.13-.93-.38-1.21a1.81,1.81,0,0,1-.32-.08c0-.31.11-.82-.24-.86s-.55.45-.6.86h0c-.76-.1-1.19-.4-.7-1.22.82,0,.85-.57.87-1.16L12,168c0-.11.09-.25,0-.31-.29-.36-.6-.4-.9,0,.07-1.34-1.23-2.29-1.05-3.66l.83,0,.4.41a.7.7,0,0,0,.75.85l.41.41.37,0c.49,1,.89,2.08,2.34,1.28a4.91,4.91,0,0,1-.22,1.32c-.2.43-.88.75-.24,1.27s1.19.16,1.59-.45l.79,0,0,.33c-.57,1.45.51,2.35,1.05,4,.57-1.89-.45-2.84-.63-4,.29-.42.54,0,.81,0h0l.31.45c-.08,1.2.74,1.26,1.6,1.28l0,0c-.66,2.11,1,4.59,3.43,5.06.27-1-1.28-.8-1.13-1.72l.8-.76.42.37c-.12.77.28.69.77.47l.38,0,.4.09h0c-1.39,1.34,0,1.38.79,1.67h.32c0,.28-.12.8.5.45h.31c.06,1,.28,1.8,1.53,1.69h0c0,.35.07.78.46.68s.26-.47,0-.71c1.5-1.79,1.74.14,1.91.83s.07,1.77-1.23,1.65l-.17-.17.15.19c.61.32.2,1.76,1.48,1.34.1.44-.2.72-.42,1-.42.68-1.52-1.55-1.65.38l-.65-.81,0-.45c0-.67-.53-.95-1-1.25l-.19.53c-1,0-1.81-.77-3-.54,1,1,2.39,1,3.36,1.71-.12,1.33-.56,2.28-2.17,1.84-.41-.8-1.52-.49-2-1.23.48-.23,1-.41.77-1.13a.43.43,0,0,0-.65-.23.85.85,0,0,0-.42,1.3,10.87,10.87,0,0,1-5.09-3.08c.22,0,.51.07.56-.27,0-.08-.15-.27-.19-.25a2,2,0,0,0-.41.23c-.54-.54-1.44-.75-1.51-1.7a1,1,0,0,0-.79-.91Zm8.75,2.85c.26-.14.67-.35.43-.63s-.67-.08-.9.27l-3-1.91c.34,1.45,1.74,1.61,2.25,2.59-.15.15-.56.21-.2.55l.2-.54a1.09,1.09,0,0,1,.38.12l.53.53.29-.46Zm-7.53-3.58c.64.56.88,1.52,1.81,1.79l.31.43c.3-.26.13-.43-.12-.58-.12-1.36-1.5-1.86-2-3-.12-.26-.51-.34-.59,0s.15.61.24.93S15.67,177.07,16.32,176.77Zm-3-7.33.36-.41a4.63,4.63,0,0,0-.75-.28c-.15,0-.43,0-.46.12-.12.32.17.45.39.55A1.26,1.26,0,0,0,13.35,169.44Zm6.54,10.29c0,.11.06.26.14.31s.21,0,.32-.05c0-.11-.07-.25-.16-.31S20,179.71,19.89,179.73Zm5.63,3s-.11,0-.13,0a.39.39,0,0,0,0,.15l.21,0Zm-.1-4.75-.09-.13-.12.1.15.17ZM28,180.05l-.06.14.2,0a.38.38,0,0,0,0-.15S28,180.06,28,180.05Z"/><path class="cls-8" d="M66.07,171.59l2.37.93-.95,2.77a1.37,1.37,0,0,0-.83.77l.36.43q0,.19,0,.38h-.4c-.84.47-1.92.69-2.09,1.9l-.44.76-1.21,0-.41-.43h-.37c.24-.42.9-.55.85-1.19h0c.69.08.66-.28.45-.75.59-.6,1.15-1.25,1.79-1.8s.69-1.17,0-1.75c-.33-1.18-.83.36-1.2-.07l0-.81C64.2,171.37,65.16,171.53,66.07,171.59Z"/><path class="cls-14" d="M57.85,182c-1.56.33-3.06.56-3.12-1.76,0-.5-.29-.76-.74-.72-1.71.15-2.29-1.33-3.34-2.18a1.24,1.24,0,0,1-.2-2c.79-.89.4-1.41-.33-1.93-.53-.38-1.23-.64-.79-1.52.76.63,1.69-1,2.43.18a2.83,2.83,0,0,0,.57.53,3.18,3.18,0,0,1,.18,2.61c-1.19.71-.83,1.38-.27,2.12s1.2,2,2.62,1.38l.78.47c.09,1-.29,2.34,1.52,2.05a.83.83,0,0,0,.69.51A.68.68,0,0,1,57.85,182Z"/><path class="cls-3" d="M54.85,178.66c-1.42.57-2-.53-2.62-1.38s-.92-1.41.27-2.12a3.18,3.18,0,0,0-.18-2.61c.16-.63,0-1.78,1.21-.79,0,1.72,0,1.72.83,1.26C55.53,174.82,55.16,176.74,54.85,178.66Z"/><path class="cls-8" d="M49.94,188.5c-.87,0-1.67-.4-2.62.16s-1.87-.33-2.73-.82-2.38.5-2.43-.54c0-.89,1.85-.55,2.62-1.35a.79.79,0,0,1,.75,0c1.22,1.65,3.52.85,4.86,2.19l-.06.06-.38.35Z"/><path class="cls-14" d="M47.77,185.1c.29-.52.51-.93,1.13-1.1a44.25,44.25,0,0,0,5.17-1.62c.57-.23.93-.26,1.11.2s-.39.66-.72.73c-.89.21-1.54,1.1-2.59.85-.59-.14-.4.24-.46.65-.11.78-3,1.37-3.49.76A1.43,1.43,0,0,1,47.77,185.1Z"/><path class="cls-15" d="M15.1,177.5l.7.09a1.09,1.09,0,0,0,.79.91c.07,1,1,1.17,1.51,1.7a.6.6,0,0,0,0,.29,10.87,10.87,0,0,0,5.09,3.08.8.8,0,0,0,.3.06c.45.74,1.56.42,2,1.23-2.06.08-3.72-1-5.45-1.87h0c-.27-.48-.74-.44-1.19-.47l0,0C17.71,180.76,15.38,179.91,15.1,177.5Z"/><path class="cls-9" d="M58.68,183.32c.85,0,1.63,0,1.09,1.21-.61,0-1.23,0-1.19.88s.62.69,1.14.69c-.88,1-2.22,1-3.3,1.51-.53-.3-.25-1.3-1.13-1.28.33-.48,1.34-.27,1.24-1.2C57,184.27,58.81,184.92,58.68,183.32Z"/><path class="cls-8" d="M29.19,183.82c.14-1.93,1.23.3,1.65-.38.81.25,1.54.81,2.48.41.54-.23.68.2.72.64h0c-.52.41-2.13-.17-.92,1.83-1-.62-2.15-.41-1.49-1.75.1-.2-.53-.16-.83-.19s-.94-.25-1,.31.58.34.94.4C29,186.19,29.29,184.79,29.19,183.82Z"/><path class="cls-14" d="M65.18,173.57c.69.59.73,1.13,0,1.75s-1.2,1.19-1.79,1.8c-.35.12-.41.43-.45.75h0c-.44,0-.9-.1-1.22.33-.66-.12-1.44.24-2-.47h.79c.78,0,1.5-.14,1.67-1.11,1,0,.94-1.21,1.69-1.51S64.82,174.14,65.18,173.57Z"/><path class="cls-14" d="M22.5,174.67c-.15.92,1.4.72,1.13,1.72-2.41-.47-4.09-2.95-3.43-5.06C21.18,172.29,21,174,22.5,174.67Z"/><path class="cls-14" d="M28.14,169.07a22.9,22.9,0,0,1,1.57,5.48C27.27,173.26,28.13,171.32,28.14,169.07Z"/><path class="cls-9" d="M59.5,166.84c1.22.26,1.81,1.63,3.11,1.76-.79,0-2.07-.52-1.25,1.18l-.43,0-1.22-.08c-.19-.45-.85-.62-.73-1.25.5-.26.42-.75.46-1.19Q59.47,167,59.5,166.84Z"/><path class="cls-14" d="M24.86,174.72l-.38,0-.77-.47-.42-.37c-.53-1.35-1.4-2.58-1.41-4.1h0c1.22.22,1.34,1.21,1.59,2.17s.18,1.9,1.41,2.07Z"/><path class="cls-9" d="M58.73,173.64c-.89.73-1.27.18-1.53-.62-.16-.5-.29-1-.43-1.51.55-1.05,1.16-2,2.58-1.87.5,1.29-.83,1.33-1.32,1.94C57.24,172.62,57.45,173.31,58.73,173.64Z"/><path class="cls-14" d="M48.63,182l1.58.15c-3.21.41-6.08.1-7.59-.7,1.82-.49,3.5.39,5.25.51Z"/><path class="cls-3" d="M59.35,169.65c-1.42-.15-2,.81-2.58,1.87-.54-2.17-.31-2.49,2.21-3.1-.11.63.54.8.73,1.25Z"/><path class="cls-14" d="M56.53,185.12c.1.93-.91.72-1.24,1.2l-.84.35c-.84-.12-1.76-.9-2.43.31-.58-.67-.39-1,.44-1.18Z"/><path class="cls-3" d="M57.16,181.18c-1.81.28-1.43-1.06-1.52-2.05l.45-.79h0C58.17,178.63,56.4,180.38,57.16,181.18Z"/><path class="cls-14" d="M46.52,177.09c-.29,1.2-1.24,1.42-2.26,1.46a1.19,1.19,0,0,1-1.42-1.25l0,0a7.61,7.61,0,0,0,3.57-.26Z"/><path class="cls-14" d="M20.22,171.34c-.86,0-1.68-.08-1.6-1.28l-.31-.45h0l.07-1.18.83-.45C20,168.95,19.25,170.41,20.22,171.34Z"/><path class="cls-14" d="M66.07,171.59c-.91-.05-1.88-.22-2.07,1.09-1.6-.81.17-2.28-.65-3.24Z"/><path class="cls-14" d="M54.37,173c-.81.46-.81.46-.83-1.26l.09-1.2q0-.18.06-.36l1.18,0q0,.2,0,.4Z"/><path class="cls-9" d="M48.63,182l-.76,0c.35-.71-.68-1.92.83-2.21.34-.07.68-.64,1-.11.2.36.25,1-.3,1.15C48.68,181,48.68,181.47,48.63,182Z"/><path class="cls-9" d="M52,187c.67-1.2,1.59-.43,2.43-.31-.2.79.69.23.81.7-.57.67-1.36.48-2.1.47C53.23,187,52.6,187,52,187Z"/><path class="cls-15" d="M38.62,177.25,39,180.9C37.4,179.6,38,178.42,38.62,177.25Z"/><path class="cls-3" d="M59.75,177.72c.52.71,1.3.35,2,.47l-.43.85q0,.17,0,.35a6.68,6.68,0,0,0-1.54-.27c-.47,0-.8,0-.84-.52A.74.74,0,0,1,59.75,177.72Z"/><path class="cls-3" d="M61.66,171.37c1.67.29-.22,1.78.76,2.4a2.87,2.87,0,0,1-1.3.39h0a7.68,7.68,0,0,1,.54-2.79Z"/><path class="cls-14" d="M43.72,168.06a7.44,7.44,0,0,1,1.37.21c.6.2,1.06.58.9,1.34-.07.36-.27.34-.57.29-.56-.08-.73-.38-.87-1.15-.05-.27-.54-.46-.83-.68Z"/><path class="cls-15" d="M28.52,182.56l0,.45h-.87c-1-.72-2.34-.72-3.37-1.71,1.2-.23,2,.57,3,.54A1.2,1.2,0,0,0,28.52,182.56Z"/><path class="cls-3" d="M58.73,173.64c-1.28-.33-1.49-1-.7-2.05C59.45,171.87,59.3,172.68,58.73,173.64Z"/><path class="cls-3" d="M60.58,177l-2.45.27.1-1.19c.78.31,2-.55,2.35.92Z"/><path class="cls-15" d="M34.92,179.87c.4.54,1.34.52,1.22,1.41,0,.29-.31.41-.61.29a2.19,2.19,0,0,1-1.28-1.33A4,4,0,0,1,34.92,179.87Z"/><path class="cls-9" d="M61.3,179.38q0-.17,0-.35h1.18l.41.43,1.21,0,0,.42a.81.81,0,0,0-.44.78h0l-1.17,0-.05-.05C63.06,179.32,61.26,180.15,61.3,179.38Z"/><path class="cls-3" d="M65.18,173.57c-.36.57-.57,1.26-1.28,1.55.17-.53-.68-1.12.08-1.62C64.35,173.92,64.85,172.39,65.18,173.57Z"/><path class="cls-9" d="M26,176.47c-.83-.29-2.18-.33-.79-1.67C26,175.12,26,175.8,26,176.47Z"/><path class="cls-14" d="M58.23,176l-.1,1.19c-.42.12-.87.63-1.25.23s.41-.34.51-.63a.72.72,0,0,0,.37-.83c.09-.54.39-1,.91-.63C59,175.57,58.25,175.71,58.23,176Z"/><path class="cls-3" d="M62.2,176.62c-.16,1-.89,1.07-1.67,1.11l0-.78h0l1.2-.34.43,0Z"/><path class="cls-14" d="M28.7,178.6c-1.25.11-1.47-.72-1.53-1.69A3.78,3.78,0,0,1,28.7,178.6Z"/><path class="cls-2" d="M57.14,165.11c1.09-.67,1,.25,1.17.86A1.2,1.2,0,0,1,57.14,165.11Z"/><path class="cls-3" d="M60.93,169.74l.43,0,.35.36,0,0-.08,1.19h0A1.07,1.07,0,0,1,60.93,169.74Z"/><path class="cls-5" d="M30.78,185.09c-.36-.06-1,.14-.94-.4s.6-.28,1-.31Z"/><path class="cls-3" d="M55.83,173.13a1.48,1.48,0,0,1,.5-.21c.35,0,.39.29.3.53s-.25.19-.39.29Z"/><path class="cls-8" d="M47.15,184.26a1.31,1.31,0,0,1-.07,1.37A1.13,1.13,0,0,1,47.15,184.26Z"/><path class="cls-3" d="M54.87,170.63q0-.2,0-.4l.19-.52c.14.09.38.17.39.28C55.49,170.37,55.16,170.5,54.87,170.63Z"/><path class="cls-2" d="M58.31,166a.73.73,0,0,1,.76.84A.72.72,0,0,1,58.31,166Z"/><path class="cls-14" d="M29.12,178.57c.29.23.49.58,0,.71s-.47-.33-.46-.68Z"/><path class="cls-3" d="M57.85,182a.68.68,0,0,0,0-.26c.22.08.45.16.67.26,0,0,0,.28-.1.31C58.12,182.4,58,182.18,57.85,182Z"/><path class="cls-14" d="M21.9,169.8l-.3-.68.23-.1.06.78Z"/><path class="cls-3" d="M60.43,172.64l.22.27a1.33,1.33,0,0,1-.28.11s-.12-.11-.11-.14A1.2,1.2,0,0,1,60.43,172.64Z"/><path class="cls-3" d="M61.12,174.16l-.21.87c-.05,0-.13-.06-.15-.11a.62.62,0,0,1,.35-.76Z"/><path class="cls-14" d="M42.84,177.29a.6.6,0,0,1-.26-.78s.1-.07.15-.11l.15.86Z"/><path class="cls-3" d="M57.74,183.25l-.24.26a1.3,1.3,0,0,1-.17-.24s.09-.14.12-.13A1.31,1.31,0,0,1,57.74,183.25Z"/><path class="cls-3" d="M53.23,167.21c0,.12.14.23.13.34s-.12.19-.19.28c0-.11-.13-.22-.13-.32S53.15,167.32,53.23,167.21Z"/><path class="cls-3" d="M55.24,163c.42-.49.82-.47,1.19.06Z"/><path class="cls-14" d="M43.71,168.07l-.89-.22c0-.05.07-.13.12-.15a.6.6,0,0,1,.77.36Z"/><path class="cls-8" d="M39.14,187.14a.64.64,0,0,1,.8-.27s.07.1.1.16l-.88.14Z"/><path class="cls-8" d="M34,184.49l.52.17c-.31.36-.38,0-.52-.17Z"/><path class="cls-3" d="M57.75,176a.72.72,0,0,1-.37.83l0-.49a2,2,0,0,1,.06-.35Z"/><path class="cls-8" d="M30.74,186.34l-.51-.18c.31-.35.38,0,.52.18Z"/><path class="cls-14" d="M26.86,176.91c-.62.35-.45-.17-.5-.45Z"/><path class="cls-9" d="M62.35,181.45c-.38-.28-.39-.55,0-.81l.05,0-.07.76Z"/><path class="cls-3" d="M54.67,165.89l.13.07-.19.14s-.07-.1-.06-.13S54.63,165.92,54.67,165.89Z"/><path class="cls-14" d="M63,168.62a.85.85,0,0,1,.36.83A.83.83,0,0,1,63,168.62Z"/><path class="cls-2" d="M53.69,170.2q0,.18-.06.36c-.2-.13-.4-.27-.2-.55Z"/><path class="cls-14" d="M57,176l-.55-.17c.32-.37.41,0,.54.18Z"/><path class="cls-9" d="M24.86,174.72l0-.68c.38.13.39.44.38.76Z"/><path class="cls-14" d="M57.43,176a2,2,0,0,0-.06.35L57,176h.42Z"/><path class="cls-2" d="M59.5,166.84q0,.19-.06.38l-.37-.42Z"/><path class="cls-3" d="M48.59,167.53l-.2.14.16-.18Z"/><path class="cls-3" d="M56.08,178.34l-.16-.1.16.1Z"/><path class="cls-14" d="M46.44,177l.24-.14-.17.22Z"/><path class="cls-14" d="M62.21,176.63l-.43,0C61.94,176.34,62.08,176.31,62.21,176.63Z"/><path class="cls-3" d="M61.7,170.14l.12-.16-.09.19Z"/><path class="cls-4" d="M70.12,146.83a.81.81,0,0,1-.46.78l-.36-.81a2.69,2.69,0,0,1-.31-1.62c.26-.13.69-.24.53-.58s-.39,0-.55.18c-.52-.05-1-.45-1.56-.09-.25-.46-.54-.06-.81,0l-.39,0c.26-.27-1.36-.57,0-.82.49,0,1.06.18,1.33-.38.13-.27-.24-.33-.48-.38.45-1.58,1.36-.14,2-.3a.74.74,0,0,0,.86.82c.76,0,.71-.62.76-1.13l0-.4.8,0c0,.29,0,.64.45.63a.18.18,0,0,0,.13-.12c.05-.44-.3-.45-.58-.52,0-.26.08-.52.09-.78,0-.43.83-.62.35-1.14a.94.94,0,0,0-.74-.21c-.68.12-.36.72-.44,1.11a6,6,0,0,0-.06,1l-.4,0-.79,0,.57-3.5c.15-.9.08-1.72-1.23-2,1-.55,1.52.16,2.13,0a1,1,0,0,0,.85.48l-.11.76c-.44.31-.81.74-.67,1.26s.53.15.82,0c.57-.24.67-.55.16-1a4.21,4.21,0,0,1,4.92.65c.31,1.45-1.17,1.58-1.75,2.37-.3.18-.58.54-.36.76.39.39.66-.49,1.13-.25a2.94,2.94,0,0,1-.56,2A2.11,2.11,0,0,0,73,144c.66.33,1.3.72,2,.23.24,1.53,1.73.42,2.4,1.17a13.51,13.51,0,0,1-4.07.35v-.4q.43-.18,0-.4l-.17-.1.17.1q0,.2,0,.4l-.81,0a17.12,17.12,0,0,1-1.95.06c-1.11-.08-.63.54-.51,1Q70.13,146.63,70.12,146.83Z"/><path class="cls-9" d="M53.25,81.22c.8,1.08,2.23,1.06,3.2,2.47s.56,1.91.13,2.9l-.17.18.19-.15c1.3.73,1.46,2,1.47,3.29l0,0c-1.17.37-1.94-1.36-3.18-.59-.31-1-1-1.8-1-2.86.55-.39,1.72-.23,1.43-1.36-.13-.5-.45-1.37-1.35-.67C52.59,83.59,53.39,82.31,53.25,81.22Z"/><path class="cls-5" d="M71.87,136.9a1,1,0,0,1-.85-.48c.79,0,1-.64,1.27-1.14h.38c.19-.15.52-.28.55-.45.06-.36-.3-.28-.53-.31a1.45,1.45,0,0,1-.35-.08c2.35-1.09,3.52,1,5.14,1.9L77,137.46a.88.88,0,0,1-.37,0c-.62-1-1.15-1.11-1.62-.27-.67-.16-1.18-.78-1.94-.65l-.38-.33-.17.2.51.16C72.76,137,72.29,136.88,71.87,136.9Z"/><path class="cls-14" d="M64.19,152.52a3.38,3.38,0,0,1,.38.1c1.05.4,1.92,1,1.73,2.27-.09.58-.81.7-1.3.38-1-.64-2.49-1-1.6-2.76Z"/><path class="cls-3" d="M58.3,95.4c-.45.39.4,1.61-1.06,1.37a1.45,1.45,0,0,1-1.31-1.65c0-.93.75-1.06,1.54-1.07C58.55,94.05,58.36,94.74,58.3,95.4Z"/><path class="cls-3" d="M69,145.18a2.69,2.69,0,0,0,.31,1.62l-.79,0-.26-.66-.25.14.5.52c-2.33.41-2.4.34-2.29-2.13l.39,0c.09.22.15.58.29.62.43.11.45-.29.52-.58.54-.36,1,0,1.56.09Z"/><path class="cls-3" d="M77.63,125.08c0,.26,0,.73-.13.74-1.79.36-.38,1.34-.41,2l-.18-.08c-1.18-.6-2.42-1.82-2.08-2.78C75.3,123.64,76.64,125.28,77.63,125.08Z"/><path class="cls-8" d="M75.25,141c.58-.8,2.06-.92,1.75-2.37l.35-.3.83,0,.4,0c.56,1.92-1.06,2.31-2.15,3.08C76.17,141,75.68,141.09,75.25,141Z"/><path class="cls-4" d="M54.85,89.34c1.24-.76,2,1,3.18.59-.3.49-1.26.21-1.24,1.06-.56.24-1,.82-1.64.8A4.08,4.08,0,0,1,54.85,89.34Z"/><path class="cls-3" d="M78.51,132c1,.57.63-.67,1.07-.85,1,1.37-.84,2.39-.42,3.67-1.32.2-1.58-.59-1.52-1.65,0-.19-.11-.5.39-.39S78.62,132.79,78.51,132Z"/><path class="cls-15" d="M62.16,95.84a2,2,0,0,1-.38-.11v0l.41-.42.46-.27,1.18,0,.05.06c-.51,2-.51,2,.88,2.79a6.68,6.68,0,0,1-2.51.42c-.74-.2-.21-.49.24-.53l.36-.36q0-.4,0-.8A.69.69,0,0,0,62.16,95.84Z"/><path class="cls-3" d="M65.15,92.66c.25.54,1.34.41,1.08,1.36L66,93.93l-.47.31-1.59.45a1.54,1.54,0,0,0-.82-.94l.08-1.19,1.17.46Z"/><path class="cls-3" d="M61.36,96.2c-.05,1.54-1,.82-1.59.54s-1-.93-.55-1.43c.59-.68,1.33-.66,1.76.33C60.52,96.22,61.23,96,61.36,96.2Z"/><path class="cls-4" d="M64.32,93l-1.17-.46,0,0c-.26-.49-.74-.42-1.18-.45-.3-.37-1-.77-.68-1.18s1.09-.37,1.59.06A3.78,3.78,0,0,1,64.32,93Z"/><path class="cls-4" d="M60.32,92.42c.1-.14.16-.69.31-.31s1,.68.31,1.25c-.24.21-.46.44-.69.67-.05-.51-.11-1-.78-.44-.46-.14-1.22.24-1.34-.45-.09-.5.62-.55,1-.77C59.5,92.89,59.9,92.93,60.32,92.42Z"/><path class="cls-14" d="M55.15,91.8c.69,0,1.08-.56,1.64-.8.46.12,1.29,0,1.07.75s-1.16.89-2,.87l0,0Z"/><path class="cls-3" d="M53.88,84.45c.9-.71,1.22.16,1.35.67.29,1.13-.88,1-1.43,1.36C53.24,85.78,53.78,85.13,53.88,84.45Z"/><path class="cls-9" d="M72.35,134.44a1.44,1.44,0,0,0,.35.08q0,.38,0,.77H72.3c-1.39-1.12-1.48-2.24-.24-3.24h0C72.12,132.85,71.62,133.72,72.35,134.44Z"/><path class="cls-3" d="M70.73,142.44c-.05.51,0,1.1-.76,1.13a.74.74,0,0,1-.86-.82l.45-.78.79,0Z"/><path class="cls-3" d="M78.17,138.38l-.83,0c0-.36,0-.69-.34-.88l.49-1.12C79.13,136.55,78.31,137.58,78.17,138.38Z"/><path class="cls-4" d="M50.27,76.23c.34-.59,1-1.17,1.48-.69.65.66-.26,1.1-.71,1.53Z"/><path class="cls-14" d="M74.72,126.94l1.27,2.2c-1.7-.47-1.2-1.48-1.26-2.21Z"/><path class="cls-15" d="M63.89,94.7l1.59-.45.47-.31.27.08c.1.43-.18.7-.41,1l-1.95,0L63.82,95Z"/><path class="cls-4" d="M63.89,94.7l-.08.3-1.18,0q0-.44,0-.88l.42-.39A1.54,1.54,0,0,1,63.89,94.7Z"/><path class="cls-5" d="M70.56,130.29l.39.34a3.8,3.8,0,0,1-.81.36.23.23,0,0,1-.21-.37A2,2,0,0,1,70.56,130.29Z"/><path class="cls-3" d="M67.09,143.06c.23,0,.61.11.48.38-.27.55-.84.39-1.33.38Z"/><path class="cls-1" d="M60.32,92.42c-.42.51-.82.47-1.2-.06C59.55,91.75,59.93,92.29,60.32,92.42Z"/><path class="cls-5" d="M66,112.31l-.16.33c-.11-.05-.28-.09-.31-.17s.09-.21.14-.32Z"/><path class="cls-3" d="M62.65,94.14q0,.44,0,.88l-.46.27C61.87,94.72,62,94.34,62.65,94.14Z"/><path class="cls-3" d="M59.47,93.58c.67-.57.73-.07.78.44A.81.81,0,0,1,59.47,93.58Z"/><path class="cls-9" d="M72.05,132c.34-.48.78-.34,1.35-.25-.49.48-.94.2-1.34.26Z"/><path class="cls-3" d="M62.16,95.84a.69.69,0,0,1,.7.75A.72.72,0,0,1,62.16,95.84Z"/><path class="cls-15" d="M61.36,96.2c-.14-.18-.84,0-.38-.57l.79.07v0Z"/><path class="cls-3" d="M62,92.1c.44,0,.91,0,1.18.45C62.69,92.53,62.22,92.6,62,92.1Z"/><path class="cls-4" d="M59.46,89.85c0,.12.14.23.13.33s-.12.19-.18.28c0-.11-.13-.21-.13-.32S59.39,90,59.46,89.85Z"/><path class="cls-3" d="M78.14,131.16a.7.7,0,0,1,.33.77A.72.72,0,0,1,78.14,131.16Z"/><path class="cls-3" d="M77.39,129.89q0,.2,0,.39l-.51-.23Z"/><path class="cls-14" d="M73.54,126.16l.17.08-.24.16-.09-.15Z"/><path class="cls-3" d="M77.38,130.3l.34.38Z"/><path class="cls-14" d="M77.8,125.24l-.17-.17s.09,0,.11,0a.57.57,0,0,1,.06.14Z"/><path class="cls-3" d="M62.84,97.38l-.36.36Z"/><path class="cls-14" d="M55.9,92.62l-.2.17.18-.19Z"/><path class="cls-4" d="M62.08,89.69l.17.1-.17-.1Z"/><path class="cls-9" d="M52.84,81.18c.14-.23.26-.23.39,0Z"/><path class="cls-4" d="M62.07,89.69l-.16-.1.16.1Z"/><path class="cls-4" d="M51,77.84l.37.43Z"/><path class="cls-3" d="M77.77,130.74l.34.37Z"/><path class="cls-14" d="M74.61,161.94a21.59,21.59,0,0,1,2.21,3.22c.73,1.46,0,1.95-1.09,1.84s-.94.36-1.06.93a2.82,2.82,0,0,0-1.59.4l.12-1.6.16-.23-.24.14c-1.18.17-1.79,2-3.33,1.14-.32-.18-.86,0-1-.53s.29-.67.69-.78a1.21,1.21,0,0,0,.84-.78c.62-1.61.72-3.44,2.18-4.51-.46,1.92,1,.58,1.67.73Z"/><path class="cls-2" d="M67,176.86q0-.19,0-.38l0-.42c.43-.06,1.08.3,1.26-.18s-.45-.51-.82-.6l.95-2.77c.48-1.09-1.1-1.06-1.06-1.91-1.1,0-.86-.7-.73-1.33a.88.88,0,0,1,.81-.75c.92-.08.65.82,1,1.23.19.26.38.52.56.78.38,1,0,2.2.57,3.19l0,0,0,.8-.1.17.11-.16c1.08.35,1,1,.28,1.57a7.19,7.19,0,0,1-1.6.79l-1.26.72Zm.66-7.14a.51.51,0,0,0,0-.17s-.1,0-.15,0a.51.51,0,0,0,0,.17S67.62,169.74,67.67,169.72Z"/><path class="cls-14" d="M60.93,163.3c-.19-.45-.76-1.12-.61-1.55.56-1.55,2.17-1.5,3.46-1.85.78-.22.85.52.9,1C64.76,161.75,62.38,163.34,60.93,163.3Z"/><path class="cls-2" d="M73.07,168.34a2.82,2.82,0,0,1,1.59-.4c-1.35,1.41-.73,3.29-1.23,5.05-1.19-1.8-1.37.6-2.21.46h0c0-.18.11-.48-.24-.48-.05,0-.1.29-.15.45l0,0-.4.36h0l-.8,0,0,0c.16-1.36,0-3.08,2.31-2.08.14.06.48-.35.72-.53C73.3,170.28,72.9,169.26,73.07,168.34Z"/><path class="cls-1" d="M67,177.66l1.26-.72c0,.44-.12.9.32,1.21-.55.67-2.36-.35-2,1.51-1,.2-1.64,1.58-2.93,1.06a.81.81,0,0,1,.44-.78.87.87,0,0,0,1-.76c.07-.34-.24-.38-.49-.43.17-1.21,1.25-1.42,2.09-1.9A.79.79,0,0,0,67,177.66Z"/><path class="cls-14" d="M80.41,144.1c.11,2,.68,3.93.42,5.92a3,3,0,0,1-.64,1.84c-.26.27-.63.58-1,.21-.24-.23-.43-.64-.14-.89,2.08-1.74.41-4.2,1.22-6.18A4.17,4.17,0,0,0,80.41,144.1Z"/><path class="cls-14" d="M66.53,179.65c-.34-1.86,1.47-.84,2-1.51.63,0,1.43.1.62.93a9.72,9.72,0,0,0-1.57,2.24Z"/><path class="cls-2" d="M66.63,152.3c1.07.18,2.49,2.27,2.37,3.81-.83-1.43-2.46-2-2.37-3.81Z"/><path class="cls-15" d="M72.59,171.11c-.25.19-.58.59-.72.53-2.33-1-2.15.72-2.31,2.08-.61-1-.19-2.16-.57-3.19l.37-.07.76.14h0c.68.83,1.35.38,2,0Z"/><path class="cls-15" d="M63.21,156.16c-.25,0-.58,0-.75.17-.45.4-.39,1.56-1.2,1.27-.45-.16-.35-1.13.07-1.73.13-.2-.64-.66-.11-.69a2.22,2.22,0,0,1,2,1Z"/><path class="cls-2" d="M73.41,145.39v.4l-1,1.16c-.37.41-.73,1.19-1.32.39-.44-.61.05-1,.68-1.23.34-.13.58-.49.87-.75Z"/><path class="cls-2" d="M72.15,170.6c-.67.39-1.35.83-2,0,.33-.05.72-.08.78-.49.16-1.22.15-1.24.41-1.18C72.29,169.14,72.73,169.62,72.15,170.6Z"/><path class="cls-14" d="M57.62,161.84c-.67.06-1.3,0-1.49-.8.12-.06.23-.13.35-.18.55-.23.89-1.31,1.62-.68S57.53,161.2,57.62,161.84Z"/><path class="cls-2" d="M75.07,144.26c-.74.49-1.38.1-2-.23a2.11,2.11,0,0,1,2.42-.52A.68.68,0,0,1,75.07,144.26Z"/><path class="cls-14" d="M65.92,158.29c.52-1.86,1.49-.17,2.22-.36-.66.72-1.47.32-2.21.37Z"/><path class="cls-15" d="M70.29,151.66c.74.79.88,1.67.26,3.22l-.28-3.2Z"/><path class="cls-2" d="M69.5,152l-.08.5-.79.39c.18-.72-.44-1.78.87-2Q69.5,151.39,69.5,152Z"/><path class="cls-15" d="M67.67,164c-1.2-.57.05-1.31.08-2l-.1,2Z"/><path class="cls-2" d="M75.25,141c.43.08.92,0,1.17.5H76c-.47-.24-.74.64-1.13.25C74.67,141.55,74.95,141.19,75.25,141Z"/><path class="cls-15" d="M69.5,152q0-.56,0-1.12c.84-.27.7.39.79.83l0,0Z"/><path class="cls-2" d="M70.12,170.61l-.76-.14c0-.3-.08-.82.3-.81S70.12,170.21,70.12,170.61Z"/><path class="cls-14" d="M65.11,158.66a.65.65,0,0,1-.84.28s-.07-.11-.1-.17l.94-.11Z"/><path class="cls-9" d="M62,165.37l-.25.86s-.13-.07-.14-.12a.66.66,0,0,1,.35-.79Z"/><path class="cls-15" d="M67.65,164l.53.5-.25.15-.26-.67Z"/><path class="cls-15" d="M68.64,152.84l.79-.39h0q0,.19,0,.38C69.2,153.2,68.93,153.32,68.64,152.84Z"/><path class="cls-15" d="M74.61,161.94l-.41,0c.08-.19-.06-.53.31-.5C74.56,161.43,74.58,161.76,74.61,161.94Z"/><path class="cls-15" d="M69.75,164.77c-.06,0-.12.06-.17,0s-.19-.14,0-.22a.21.21,0,0,1,.17,0S69.74,164.73,69.75,164.77Z"/><path class="cls-14" d="M65.93,158.3c-.17.36-.5.36-.83.36h0c.17-.34.49-.37.82-.37Z"/><path class="cls-15" d="M63.23,156.14l.52.21-.12.14-.43-.32Z"/><path class="cls-9" d="M61.37,167.3l-.06.15-.16-.18.13-.11Z"/><path class="cls-8" d="M80.16,139.59l-.13-.06.17-.14.1.12Z"/><polygon class="cls-15" points="71.76 158.45 71.73 158.35 71.83 158.37 71.76 158.45"/><path class="cls-2" d="M69.47,152.82q0-.19,0-.38a2.59,2.59,0,0,1,.18.26S69.52,152.78,69.47,152.82Z"/><path class="cls-15" d="M73.87,160.31a.63.63,0,0,1,.16.1s0,.09,0,.13l-.15-.24Z"/><path class="cls-15" d="M73.5,159.88l.38.43h0l-.39-.41Z"/><path class="cls-15" d="M73.49,159.88l-.37-.43h0l.39.41Z"/><path class="cls-15" d="M73.12,159.45l-.2-.18s.1,0,.12,0a.59.59,0,0,1,.07.16Z"/><path class="cls-9" d="M61.94,165.32l.2-.14-.16.19Z"/><path class="cls-2" d="M71.22,173.45l-.42.38h0q0-.19,0-.39l0,0,.39,0Z"/><path class="cls-2" d="M70.8,173.84c-.15.28-.28.26-.41,0h.41Z"/><path class="cls-2" d="M70.12,146.83q0-.2,0-.39C70.41,146.58,70.41,146.71,70.12,146.83Z"/><path class="cls-14" d="M59.48,82.05c-1,.81-.35,1,.43,1.17.52.13.89.47.34,1-.37.34-.66,1.17-1.4.45a4.84,4.84,0,0,1-1.11-2.8c-.07-.37.21-1.16.93-1A1,1,0,0,1,59.48,82.05Z"/><path class="cls-15" d="M55.49,76.51c-.16-.84-.21-1.52,1-.78a7,7,0,0,0,1.08.47C56.93,76.86,56.18,76.46,55.49,76.51Z"/><path class="cls-15" d="M57.52,76.2c.33-1.26.33-1.26,2,.08Z"/><path class="cls-15" d="M60.48,72.33a2.25,2.25,0,0,1-1.93.47c.42-.86,1.07-.42,1.57-.52Z"/><path class="cls-15" d="M53.48,76.75c.59-.77,1.31-.43,2-.25A1.65,1.65,0,0,1,53.48,76.75Z"/><path class="cls-3" d="M78.56,128.49c.11.05.28.09.31.17s-.09.21-.14.32c-.11-.05-.28-.09-.31-.17S78.51,128.6,78.56,128.49Z"/><path class="cls-5" d="M6.69,159.8a.86.86,0,0,1-.36-.83,3.4,3.4,0,0,0-1-2.82c-.81-.87-1.19-2.94-1-4.6.05-.48.44-.79.83-.63.72.3,1.71.72,1.62,1.55-.22,2,1.87,3.25,1.46,5.26-.07.33.53.53.94.57a1.43,1.43,0,0,1-.85,1.59Z"/><path class="cls-4" d="M10,150.7a2.56,2.56,0,0,1-1.68,1.7c-.31.09-.39-.34-.34-.58.23-1.13,1.27-.88,2-1.13Z"/><path class="cls-5" d="M3.31,147.5c.08-.24.09-.59.46-.48s.32.39.27.66-.08.59-.46.48S3.28,147.77,3.31,147.5Z"/><path class="cls-5" d="M4.28,149.37c.11.06.28.09.31.17s-.09.21-.15.32c-.11-.05-.28-.09-.31-.17S4.23,149.48,4.28,149.37Z"/><path class="cls-4" d="M10,150.7l.1-.16-.1.17Z"/><path class="cls-2" d="M4.07,136.63c-.05.11-.09.28-.17.31s-.21-.09-.32-.14c.05-.11.09-.28.17-.31S4,136.57,4.07,136.63Z"/><path class="cls-12" d="M63.88,27.85l.08.75a1.41,1.41,0,0,0-1.43.8c-.13.3.25.34.49.38h0c.25,1.08-.85,1.06-1.29,1.57-.28.39-.93.54-.82,1.2l-.07.76c-.48.43-1,.81-.86,1.59-.34,1,.7,1.12,1.11,1.64-.38,1.07-.94,1.81-2.27,1.51-1.15-.26-1.65.89-2.4,1.39a2,2,0,0,1-1.12.44c-1-.14-.13-2.33-1.84-1.72-.13-.41-.11-.92.29-1,2.08-.58,2.61-2.14,2.68-4l.88-.13c0-.05-.05-.14-.1-.16a.62.62,0,0,0-.8.27c-1.09-.41-.11-1.38-.51-2.17-.52-1-1.53-1.6-1.85-2.68a5.89,5.89,0,0,0-.31-.71c2-.59,1.09-1.83.69-3,.51,0,1.1.12,1.36-.6-.76-.29-1.23-.2-1.38.57-.68-1.18-.62-2.68-1.63-3.71a1.49,1.49,0,0,1-.17-.28c1.89-.24,1.15-2.59,2.57-3.2.7.28,1.43,1,2-.43.27,1.06-.61,1.76-.1,2.54-.15.53-1,.76-.65,1.5a.61.61,0,0,0,.46.15c.91-1.41,2,0,3-.25.32.47,1.22.29,1.21,1.11-.61.81-1.91.36-2.52,1.35.87.25,1.23,1.3,2.24,1.15.26.5.75.44,1.2.47q0,.2,0,.39v.42h0l-.9,0,0,.24.88.13c.09,1.31,1,.35,1.47.53l0,.75c-.38.08-1.15-.18-1,.46S63.42,27.94,63.88,27.85ZM58.8,33.18c.67-.58.19-.7-.32-.81C57.82,32.94,58.27,33.08,58.8,33.18Zm-1-3.8c0-.12-.05-.34-.17-.45s-.3,0-.45.08a1.47,1.47,0,0,0,.16.5C57.46,29.68,57.65,29.65,57.79,29.38Zm-2.12-8.53c-.11-.05-.24-.17-.32-.14s-.11.2-.17.31c.11.05.24.17.32.14S55.61,21,55.67,20.85Zm2.06,14.31-.32.17c.1.06.2.17.3.18s.21-.09.32-.15Zm.18-4.62s0-.11-.07-.13-.11,0-.16,0l.1.2Z"/><path class="cls-7" d="M47.8,59.57c.11-.39,1.11-.66.16-1.18.79-.79-.66-2.19.78-2.8,1.18.09,2.4.43,3.39-.58h.39L52,58.2l0,.41c-.14.1-.54-.21-.44.28l.44-.28c.45,0,.93.14,1.26-.33h.34c1.76.9.1,2.18-.07,2.84-.52,2.08.49,2.07,1.87,2.09a.89.89,0,0,1,.81.5c0,.21,0,.42,0,.63.26.81-.27,1.32-1.13,1.94l3.6.55c-1.64.81-2.94.25-4.18.33-.59,0-.82.21-.73.85.06.44.16,1,.62.66,1.48-1,2.4.32,3.55.71-2.45.12-4.94-.23-7.29.82-.71-.12-1.49.09-2.11-.46.21-1.08-.93-2.38.57-3.31.14-.09-1.33-.69-.6-1.58,1-1.18.2-1.64-.78-2.06-.08-.75.54-1.09.94-1.56l.11-.15-.09.17C47.43,61.13,48,60.17,47.8,59.57Zm2.11-2.5c.11.07.22.2.32.2s.64.14.54-.18S50.23,56.85,49.92,57.07Zm.18,1c.05.1.09.25.16.28s.21-.06.32-.09l-.22-.38Zm-.78,7a.52.52,0,0,0-.16-.06s0,.08-.06.12a.51.51,0,0,0,.16.05S49.29,65.12,49.31,65.08Z"/><path class="cls-10" d="M52,58.2,52.51,55c.24-.15.48-.43.15-.58s-.47.26-.54.57c-1,1-2.21.68-3.39.58a.51.51,0,0,0,.06-.3c.64-.5,1.48-.27,2.2-.52-.58-.95-.26-2.53-2-2.35-1.83-1.2-.11-2.67-.31-4a4.81,4.81,0,0,0,2.11.46c.54,0,1.17-.1,1.37-.61s-.54-.39-.76-.63c-.68-.76.56-1,.55-1.54-.48-.68-1.4-.14-1.78-.83,1-.12.79-.95.87-1.6h0c1.88,1,3.32-.24,4.87-.95,0,.45-.1.93.38,1.23-.1.63.5.8.77,1.19l-.11.1-3.05.36c1,1.19,1.86.05,2.67.35l.38.43-.42.38h0c-1.54.05-3.19-.17-3.38,2.16-.06.8.64.77.87,1.28a2.52,2.52,0,0,1-.91,3.39,1.89,1.89,0,0,1,2.56,1.83c0,1.06-1.54.86-2.88.92.8.65,2.46,1,.73,2H53.2Zm1.91-3c.11.05.24.17.32.14s.12-.2.17-.31c-.11-.05-.24-.17-.32-.15S53.93,55.08,53.87,55.19Zm-.31-2.8-.14-.06,0,.2a.37.37,0,0,0,.14,0S53.56,52.43,53.57,52.39Z"/><path class="cls-7" d="M61.08,36.53c-.41-.52-1.45-.61-1.11-1.64l5.81-2.21.29.49c0,.59.3.8.83.81a.75.75,0,0,1,.34.07C65.21,34.92,63.43,36.43,61.08,36.53Zm4-2.08c0-.31-.07-.47-.29-.42a.68.68,0,0,0-.44.3c-.12.24.1.35.3.32A1.5,1.5,0,0,0,65.05,34.44Zm-2.41.7s0,.11,0,.13a.4.4,0,0,0,.15,0l0-.21Z"/><path class="cls-12" d="M56.32,43.95c-.48-.3-.38-.78-.38-1.23-.1-.91.58-1.25,1.2-1.64s1.08-.5,1.45,0c.53.67,0,1.06-.61,1.35-1.12-.06-1.34.63-1.3,1.55Z"/><path class="cls-12" d="M57,46.37l-.38-.43.38-.71.11-.1.77-.32h0c-.17,1.26.09,2.58-.58,3.83,0-.74-.68-1.19-.73-1.89h0C56.72,46.66,57.29,47,57,46.37Z"/><path class="cls-10" d="M56.68,43.95c0-.92.18-1.61,1.3-1.55C57.79,43.13,57.66,43.89,56.68,43.95Z"/><path class="cls-12" d="M58.66,44.85l-.8,0h0c.05-.35,0-.93.36-1,.69,0,.37.62.45,1Z"/><path class="cls-11" d="M59.08,59.3l-.09.92c-.19-.14-.53-.26-.56-.42C58.37,59.36,58.78,59.37,59.08,59.3Z"/><path class="cls-12" d="M58.66,44.85l.51.18c-.31.35-.38,0-.52-.17Z"/><path class="cls-6" d="M51.07,43.67c-.08.65.17,1.47-.87,1.6a.84.84,0,0,1-.38-.82C50.43,44.49,50.63,43.9,51.07,43.67Z"/><path class="cls-10" d="M50.82,24.34l.87.21c0,.05-.06.13-.11.15a.62.62,0,0,1-.77-.35Z"/><path class="cls-10" d="M49.53,25.55c-.2-.1-.58-.22-.57-.31a.64.64,0,0,1,.61-.58Z"/><path class="cls-12" d="M52.67,38.81s.1,0,.12,0a.39.39,0,0,1,0,.15l-.2,0Z"/><path class="cls-12" d="M55.45,34.63l-.07.14-.14-.2s.1-.07.13-.06S55.42,34.58,55.45,34.63Z"/><path class="cls-13" d="M49.46,27.5l.09-.12-.1.11Z"/><path class="cls-13" d="M49.78,29.13l.09-.12-.11.11Z"/><path class="cls-13" d="M49.77,29.11l-.43.38v0l.42-.39Z"/><path class="cls-1" d="M18.36,168.43l-.07,1.18c-.27,0-.52-.46-.81,0l-.42-.08,0-.33c0-.53.19-1.41-.56-1.35-.93.08-.35.84-.23,1.33-.4.61-.9,1-1.59.45s0-.84.24-1.27a4.92,4.92,0,0,0,.22-1.32c-.22-.54-.81-.91-.7-1.6h.36c.14.29.28.31.45,0l.38,0c0,.5.19.92.78.73.43-.13.3-.45,0-.69l.39-1.52C18.33,165.24,17.56,167.1,18.36,168.43Z"/><path class="cls-14" d="M11.31,164.44l-.4-.41-.73-.88v-.77h0l.91.28c0-1.6,1.26-.58,2-1-1.52,1.51,1,2.69.17,4.08l-.39,0-.37,0c0-.46.1-.94-.39-1.23Z"/><path class="cls-9" d="M12.84,165.74l.39,0c.51.25.73-.63,1.25-.33-.11.68.48,1.06.7,1.6C13.72,167.82,13.32,166.7,12.84,165.74Z"/><path class="cls-2" d="M6.69,159.8l1.63.09C7.72,160.84,7.18,160.76,6.69,159.8Z"/><path class="cls-9" d="M16.47,165.51c.28.24.41.56,0,.69-.59.18-.76-.23-.78-.73Z"/><path class="cls-14" d="M10.19,162.38l-.89-1.13c1-.07.9.57.89,1.13Z"/><path class="cls-1" d="M10.18,163.15l.73.88-.83,0c-.17-.07-.47-.13-.48-.22C9.55,163.38,9.9,163.28,10.18,163.15Z"/><path class="cls-9" d="M15.28,165.45c-.16.29-.31.27-.45,0Z"/><path class="cls-2" d="M56.43,187.61c1.08-.54,2.42-.52,3.3-1.51a2.75,2.75,0,0,0,0-.29,2.86,2.86,0,0,0,2.48-.76c.11,2-.72,2.78-3.53,3C57.93,188.14,57,188.34,56.43,187.61Z"/><path class="cls-3" d="M59.73,185.82a2.75,2.75,0,0,1,0,.29c-.52,0-1.1.07-1.14-.69s.58-.87,1.19-.88l.85.06C61.43,185.8,59.59,185.09,59.73,185.82Z"/><path class="cls-14" d="M59.73,185.82c-.13-.72,1.7,0,.9-1.23.7-.94,1.33-.29,2,.09l-.1.4H62.2A2.86,2.86,0,0,1,59.73,185.82Z"/><path class="cls-3" d="M66.43,184.32c-.59.3-1,.72-1.53.28-.24-.2-.1-.47.11-.65C65.55,183.5,65.93,183.86,66.43,184.32Z"/><path class="cls-1" d="M62.36,181.45l.07-.76,1.17,0A1.13,1.13,0,0,1,62.36,181.45Z"/><path class="cls-1" d="M49.95,188.49l.38-.35Z"/><path class="cls-2" d="M62.5,185.08l.1-.4C62.9,184.89,62.84,185,62.5,185.08Z"/><path class="cls-7" d="M52.56,7.94,52.2,5.48c.18-.26.35-.73.53-.73.5,0,.21.47.26.73.14.69.21,1.39.31,2.08Z"/><path class="cls-7" d="M55.92,5.68l.17-3.37.54.05A32.65,32.65,0,0,0,55.92,5.68Z"/><path class="cls-7" d="M56.5,7.32l-.41,0c.05-.16.1-.46.16-.46C56.59,6.83,56.45,7.14,56.5,7.32Z"/><path class="cls-15" d="M50.56,70.21c2.34-1,4.84-.7,7.29-.82l1.19.39c-.25,2-1.65,2.44-3.36,2.62l2,.23c-1.26-.11-2.57,1.43-3.83-.13-.18-.23-1.24.18-1.86.41a1.37,1.37,0,0,1-1.62-.41c-.55-.64.31-.71.57-1C51.76,70.76,50.12,70.82,50.56,70.21Z"/><path class="cls-6" d="M59,69.78l-1.19-.39c-1.14-.39-2.06-1.71-3.55-.71-.45.31-.56-.22-.62-.66-.09-.64.14-.81.73-.85,1.25-.08,2.54.48,4.18-.33L55,66.29c.86-.62,1.39-1.13,1.13-1.94,1.06-.07,2.12.55,3.17,0,.48-.26.31.21.33.36.06.61.8,1.44.06,1.79-1.17.56-.41.73,0,1.09.69.55,1.66,1.06.49,2.07l-.78.2Z"/><path class="cls-6" d="M59.93,20.82c-1,.25-2.12-1.16-3,.25a.61.61,0,0,1-.46-.15c-.38-.74.5-1,.65-1.5,1.43.35.88-1.34,1.75-1.81.46-.25,1-.92,1.67-1.29l.78.13c-1,.45,1,2.12-.37,2.1.65-.23,1,1.18,2.05,1.31C62,20.7,60.88,20.46,59.93,20.82Z"/><path class="cls-12" d="M54.1,13.56a1.51,1.51,0,0,0,0-.31l2.1-.72h0c-.17.64.3,1.54-.6,1.88C54.9,14.68,54.4,14.22,54.1,13.56Z"/><path class="cls-12" d="M57.9,11.41l.16.1-.17-.1Z"/><path class="cls-7" d="M60.87,24.43c-1,.15-1.37-.9-2.24-1.15.61-1,1.91-.54,2.52-1.35.52-.11,1-.2,1.55-.33s.8.49.55.56c-1.56.47.17,1.4-.35,2Z"/><path class="cls-6" d="M65.79,32.68,60,34.89c-.16-.77.39-1.16.87-1.59a22.34,22.34,0,0,0,4.53-1.07Z"/><path class="cls-7" d="M63,29.78c-.24,0-.63-.08-.49-.38A1.41,1.41,0,0,1,64,28.6c1.15.38.46,1.34.64,2a4.94,4.94,0,0,1-2.87.71c.45-.51,1.54-.49,1.29-1.57l.1-.17Z"/><path class="cls-7" d="M65.36,32.23a22.34,22.34,0,0,1-4.53,1.07l.07-.76a11.47,11.47,0,0,0,3.78-1.11C65.13,31.52,65.29,31.84,65.36,32.23Z"/><path class="cls-6" d="M64.69,31.44a11.47,11.47,0,0,1-3.78,1.11c-.1-.66.54-.8.82-1.2a4.94,4.94,0,0,0,2.87-.71Z"/><path class="cls-7" d="M63.47,26.63c-.49-.18-1.39.79-1.47-.53q0-.2,0-.4h0c.42,0,.88.16,1.17-.32l0,0C63.72,25.71,63.51,26.19,63.47,26.63Z"/><path class="cls-6" d="M60.87,24.43l2-.3.36.83-1.2-.06C61.61,24.87,61.13,24.92,60.87,24.43Z"/><path class="cls-7" d="M63.88,27.85c-.46.09-1.12.63-1.31,0s.58-.38,1-.46Z"/><path class="cls-6" d="M66.91,34c-.53,0-.86-.23-.83-.81l.79,0Z"/><path class="cls-7" d="M62.06,24.9l1.2.06,0,.4,0,0L62,25.29Q62,25.1,62.06,24.9Z"/><polygon class="cls-6" points="62.26 18.27 62.15 18.31 62.17 18.2 62.26 18.27"/><path class="cls-10" d="M56.23,12.54l-2.1.72-2.34-.58c.24-2.48,2.11-1.15,3.29-1.41h0C55,12.16,56,12,56.23,12.54Z"/><path class="cls-6" d="M54,8c.62.48.2,1.18.38,1.76C53.71,9.3,54.12,8.6,54,8Z"/><path class="cls-6" d="M55.85,9.2c-.05.11-.09.28-.17.31s-.21-.09-.32-.14c.05-.11.09-.28.17-.31S55.74,9.14,55.85,9.2Z"/><path class="cls-10" d="M55.08,11.27l.11-.16-.1.17Z"/><path class="cls-11" d="M50.64,11.86l.16-.17s0,.08,0,.1a.57.57,0,0,1-.14.06Z"/><path class="cls-15" d="M12.87,172.18l.39.83c0,.32,0,.66.37.83h0a1,1,0,0,0,.1.38l-.11.4c-1.68-1.06-1.75-3.05-2.65-4.57h.88a1.8,1.8,0,0,0,.33.08c0,.43-.06.91.38,1.21h0C12.53,171.68,12.53,172,12.87,172.18Z"/><path class="cls-15" d="M13.61,174.62l.75.08h0q0,.58,0,1.16C13.18,176,13.32,175.36,13.61,174.62Z"/><path class="cls-7" d="M49,52.42c1.72-.18,1.41,1.4,2,2.35-.72.25-1.56,0-2.2.52-.34-.11-1.12-.16-.92-.39C48.52,54.15,47.15,52.51,49,52.42Z"/><path class="cls-10" d="M48.45,46.85c.73-.79,1.13-.06,1.55.37a1,1,0,0,1,.06.67,1.86,1.86,0,0,1-2-.29Z"/><path class="cls-12" d="M52.11,14.3c0,.44-.18.78-.68.73s-.5-.35-.49-.7.15-.79.67-.74S52.11,13.95,52.11,14.3Z"/><polygon class="cls-12" points="50.63 15.76 50.6 15.64 50.7 15.66 50.63 15.76"/><path class="cls-1" d="M18.86,182.51c.45,0,.92,0,1.19.47C19.6,183,19.11,183,18.86,182.51Z"/><path class="cls-15" d="M15.95,176.33c-.09-.31-.31-.66-.24-.93s.47-.21.59,0c.51,1.1,1.89,1.61,2,3l-.19.15c-.93-.27-1.16-1.24-1.81-1.79Z"/><path class="cls-9" d="M17.06,169.5l.42.08c.18,1.12,1.2,2.07.63,4C17.57,171.85,16.49,170.95,17.06,169.5Z"/><path class="cls-15" d="M23,180.8a1.09,1.09,0,0,0-.38-.12h0c-.51-1-1.91-1.14-2.25-2.59l3,1.91.47.36-.06.51Z"/><path class="cls-1" d="M23.53,183.62a.8.8,0,0,1-.3-.06.85.85,0,0,1,.42-1.3.43.43,0,0,1,.65.23C24.57,183.21,24,183.39,23.53,183.62Z"/><path class="cls-8" d="M16.3,169.15c-.12-.5-.7-1.26.23-1.33.75-.06.53.82.56,1.35Z"/><path class="cls-1" d="M28.52,182.56a1.2,1.2,0,0,1-1.21-.72l.19-.53C28,181.61,28.49,181.89,28.52,182.56Z"/><path class="cls-1" d="M13.35,169.44a1.26,1.26,0,0,1-.47,0c-.23-.1-.52-.23-.39-.55,0-.09.32-.15.46-.12a4.63,4.63,0,0,1,.75.28Z"/><path class="cls-1" d="M12.87,172.18c-.34-.19-.34-.5-.31-.83.58,0,1.17,0,1.18.85l0,0Z"/><path class="cls-8" d="M11.85,170.06H11c0-.4.11-.92.6-.86S11.8,169.76,11.85,170.06Z"/><path class="cls-1" d="M23.85,180.35l-.47-.36c.23-.34.61-.59.9-.26S24.11,180.21,23.85,180.35Z"/><path class="cls-8" d="M11.31,164.44l.76,0q0,.41,0,.82A.7.7,0,0,1,11.31,164.44Z"/><path class="cls-1" d="M11.13,167.66c.3-.4.61-.35.9,0,0,.06,0,.2,0,.31l-.84-.29Z"/><path class="cls-1" d="M16.59,178.49a1.09,1.09,0,0,1-.79-.91A1,1,0,0,1,16.59,178.49Z"/><path class="cls-1" d="M19.89,179.73c.11,0,.25-.09.3-.05s.11.2.16.31c-.11,0-.25.09-.32.05S19.94,179.84,19.89,179.73Z"/><path class="cls-1" d="M12.56,171.36c-.44-.3-.34-.78-.38-1.21C12.69,170.42,12.57,170.91,12.56,171.36Z"/><path class="cls-1" d="M23.72,174.27l.77.47C24,175,23.6,175,23.72,174.27Z"/><path class="cls-1" d="M12.05,165.29q0-.41,0-.82c.5.3.42.77.39,1.23Z"/><path class="cls-1" d="M23,180.8l.82.07-.29.46Z"/><path class="cls-1" d="M18.14,180.49a.6.6,0,0,1,0-.29,2,2,0,0,1,.41-.23s.2.17.19.25C18.65,180.56,18.36,180.45,18.14,180.49Z"/><path class="cls-1" d="M25.53,182.75l0,.14-.21,0a.39.39,0,0,1,0-.15S25.48,182.75,25.53,182.75Z"/><path class="cls-1" d="M15.95,176.33l.37.44C15.67,177.07,16,176.5,15.95,176.33Z"/><path class="cls-1" d="M25.42,178l-.06.14-.15-.17.12-.1Z"/><path class="cls-1" d="M22.59,180.68l-.2.54c-.37-.34,0-.39.2-.55Z"/><path class="cls-15" d="M18.32,178.42c.24.15.41.32.12.58l-.31-.43Z"/><path class="cls-1" d="M28,180.05s.1,0,.12,0a.38.38,0,0,1,0,.15l-.2,0Z"/><path class="cls-1" d="M13.63,173.84c-.37-.17-.34-.51-.37-.83A.74.74,0,0,1,13.63,173.84Z"/><path class="cls-1" d="M13.74,172.2l.52.2-.11.14-.43-.32Z"/><path class="cls-1" d="M13.72,174.22a1,1,0,0,1-.1-.38,2.13,2.13,0,0,1,.21.25S13.76,174.17,13.72,174.22Z"/><path class="cls-8" d="M18.31,169.62l.31.45Z"/><path class="cls-1" d="M29.78,181.07l-.15-.19.17.17Z"/><path class="cls-1" d="M14.37,174.69l.2-.16-.18.18Z"/><path class="cls-3" d="M67.49,175.28c.37.09,1,.12.82.6s-.82.12-1.26.18l-.4,0A1.37,1.37,0,0,1,67.49,175.28Z"/><path class="cls-1" d="M62.09,179h-.81l.43-.85c.32-.43.79-.32,1.22-.33C63,178.49,62.34,178.62,62.09,179Z"/><path class="cls-3" d="M64.53,178.75c.25,0,.56.09.49.43a.87.87,0,0,1-1,.76l0-.42Z"/><path class="cls-3" d="M62.93,177.86c0-.31.1-.62.45-.75C63.6,177.58,63.63,177.94,62.93,177.86Z"/><path class="cls-3" d="M67,177.66a.79.79,0,0,1-.36-.81H67Z"/><path class="cls-1" d="M66.66,176l.4,0,0,.42Z"/><path class="cls-3" d="M62.88,179.48l-.41-.43Z"/><path class="cls-15" d="M77,137.46c.37.19.39.53.34.88l-.35.3a4.21,4.21,0,0,0-4.92-.65l-.31-.32.11-.76c.42,0,.88.12,1.15-.37l0,0c.76-.12,1.28.5,1.94.65.48.44,1.06.29,1.62.27A.88.88,0,0,0,77,137.46Z"/><path class="cls-2" d="M70.75,142a6,6,0,0,1,.06-1c.09-.39-.24-1,.44-1.11a.94.94,0,0,1,.74.21c.48.52-.34.72-.35,1.14,0,.26-.06.52-.09.78h0l-.8,0Z"/><path class="cls-2" d="M71.77,137.67l.31.32c.51.41.41.73-.16,1-.29.12-.72.34-.82,0S71.33,138,71.77,137.67Z"/><path class="cls-2" d="M67.41,144.68c-.08.29-.09.7-.52.58-.14,0-.2-.4-.29-.62C66.87,144.63,67.16,144.23,67.41,144.68Z"/><path class="cls-2" d="M71.56,142.08c.29.07.64.07.58.52a.18.18,0,0,1-.13.12c-.45,0-.42-.34-.45-.63Z"/><path class="cls-2" d="M69,145.18l0-.41c.15-.19.4-.47.55-.18S69.26,145.05,69,145.18Z"/><path class="cls-2" d="M73.41,145.39q0-.2,0-.4h0Q73.83,145.21,73.41,145.39Z"/><path class="cls-2" d="M73.42,145l-.17-.1.17.1Z"/><path class="cls-2" d="M70.73,142.44l-.39-.43.4,0h0Z"/><path class="cls-4" d="M56.6,86.62l-.19.15.17-.18Z"/><path class="cls-2" d="M76.63,137.42c-.56,0-1.14.17-1.62-.27C75.48,136.31,76,136.4,76.63,137.42Z"/><path class="cls-2" d="M42.3,189.29q0-.38,0-.77c.23,0,.59,0,.53.31C42.82,189,42.49,189.14,42.3,189.29Z"/><path class="cls-15" d="M73,136.53l-.51-.16.17-.2.38.33Z"/><path class="cls-2" d="M68.51,146.76l-.5-.52.25-.14.26.66Z"/><path class="cls-4" d="M66,93.93l-.47.31Z"/><path class="cls-3" d="M73.12,166.65l.24-.14-.16.23Z"/><path class="cls-3" d="M67.67,169.72c-.05,0-.14,0-.15,0a.51.51,0,0,1,0-.17c.05,0,.14,0,.15,0A.51.51,0,0,1,67.67,169.72Z"/><path class="cls-3" d="M69.55,174.58l-.11.16.1-.17Z"/><path class="cls-3" d="M71.21,173.45l-.39,0c.05-.16.1-.45.15-.45C71.32,173,71.17,173.27,71.21,173.45Z"/><path class="cls-3" d="M70.79,173.83H70.4l.4-.36Q70.8,173.64,70.79,173.83Z"/><path class="cls-7" d="M54.42,24.51c.15-.77.63-.86,1.38-.57-.26.72-.85.58-1.36.6Z"/><path class="cls-7" d="M57.79,29.38c-.14.27-.33.3-.46.14a1.47,1.47,0,0,1-.16-.5c.16,0,.38-.14.45-.08S57.75,29.26,57.79,29.38Z"/><path class="cls-10" d="M55.67,20.85c-.05.11-.09.28-.17.31s-.21-.09-.32-.14c.05-.11.09-.28.17-.31S55.56,20.8,55.67,20.85Z"/><path class="cls-7" d="M57.72,35.17l.3.2c-.11.05-.21.15-.32.15s-.2-.11-.3-.18Z"/><path class="cls-6" d="M62,25.29l1.16.09c-.29.48-.76.31-1.17.32Z"/><path class="cls-6" d="M62,25.71q0,.2,0,.4L61.11,26l0-.24Z"/><path class="cls-7" d="M56.42,33.06a.62.62,0,0,1,.8-.27s.06.1.1.16l-.88.13Z"/><path class="cls-6" d="M58.48,32.37c.51.11,1,.24.32.81Z"/><path class="cls-7" d="M58.48,32.37l.32.81C58.27,33.08,57.82,32.94,58.48,32.37Z"/><path class="cls-7" d="M57.9,30.54l-.14.08-.1-.2c.05,0,.12,0,.16,0S57.88,30.5,57.9,30.54Z"/><path class="cls-6" d="M52.13,55c.07-.31.09-.77.54-.57s.09.43-.15.58h-.39Z"/><path class="cls-6" d="M49.92,57.07c.31-.22.78-.26.86,0s-.33.19-.54.18S50,57.15,49.92,57.07Z"/><path class="cls-6" d="M50.09,58.09l.26-.19.22.38c-.11,0-.23.12-.32.09S50.15,58.19,50.09,58.09Z"/><path class="cls-6" d="M52,58.2l1.24.07c-.33.47-.81.34-1.26.33h0Z"/><path class="cls-6" d="M51.94,58.6l-.44.28c-.1-.49.3-.18.44-.28Z"/><path class="cls-11" d="M49.31,65.08s0,.12-.06.12a.51.51,0,0,1-.16-.05s0-.12.06-.12A.52.52,0,0,1,49.31,65.08Z"/><path class="cls-13" d="M48.6,61.27l.09-.17-.11.15Z"/><path class="cls-6" d="M57,45.23l-.38.71c-.81-.3-1.71.84-2.67-.35Z"/><path class="cls-6" d="M53.87,55.19c.06-.11.09-.28.17-.31s.21.09.32.15c-.06.11-.09.28-.17.31S54,55.25,53.87,55.19Z"/><path class="cls-6" d="M53.57,52.39s0,.1,0,.12a.37.37,0,0,1-.14,0l0-.2Z"/><path class="cls-6" d="M57,46.37c.32.63-.25.29-.42.38Z"/><path class="cls-6" d="M65.05,34.44a1.5,1.5,0,0,1-.44.2c-.2,0-.41-.08-.3-.32a.68.68,0,0,1,.44-.3C65,34,65.1,34.14,65.05,34.44Z"/><path class="cls-6" d="M62.64,35.14l.14,0,0,.21a.4.4,0,0,1-.15,0S62.65,35.19,62.64,35.14Z"/><path class="cls-12" d="M63,29.78l.1-.17-.1.17Z"/></svg>