<svg id="Island" xmlns="http://www.w3.org/2000/svg" viewBox="0 0 359.22 157.79"><defs><style>.cls-1{fill:#4baa4b;}.cls-2{fill:#78b645;}.cls-3{fill:#479646;}.cls-4{fill:#65a24a;}.cls-5{fill:#3e9a46;}.cls-6{fill:#1a8542;}.cls-7{fill:#32953f;}.cls-8{fill:#239347;}.cls-9{fill:#409b46;}.cls-10{fill:#55a050;}.cls-11{fill:#06a44a;}.cls-12{fill:#439b47;}.cls-13{fill:#119146;}.cls-14{fill:#4c9e4b;}.cls-15{fill:#5fb146;}.cls-16{fill:#5db046;}.cls-17{fill:#65b34a;}</style></defs><title>Islandoo</title><path class="cls-1" d="M144.44,156.66l1.7,1.12Z"/><path class="cls-2" d="M259.1,153.07c1.93-2.07,3.94-1.84,6-.21C263.17,155.2,261.17,155.15,259.1,153.07Z"/><path class="cls-2" d="M246.58,153.21c.93-1.61,1.86-1.53,2.77,0C248.42,154.68,247.5,154.7,246.58,153.21Z"/><path class="cls-3" d="M51.88,151.51l1.52,1.74c-.87,1.52-1.91,1.61-3.1.36Z"/><path class="cls-2" d="M133.39,154.15c1.28-1.48,2.91-1.23,4.55-.92C136.7,154.89,135,154.46,133.39,154.15Z"/><path class="cls-2" d="M201.2,153.43l4.16.15C203.91,154.94,202.52,155,201.2,153.43Z"/><path class="cls-2" d="M150.8,154l2.88.15A2.08,2.08,0,0,1,150.8,154Z"/><path class="cls-2" d="M171.34,153.54l2.65.05C173.09,154.69,172.2,154.7,171.34,153.54Z"/><path class="cls-4" d="M293.43,151.55c1.24.15,2.47.34,3.15,1.6l-3.24-.33A5.83,5.83,0,0,1,293.43,151.55Z"/><path class="cls-3" d="M44.06,153.28l1.57.06C45.08,154,44.55,154.08,44.06,153.28Z"/><path class="cls-3" d="M102.37,153.53a1.3,1.3,0,0,1,1.14-1.69c0,.55-.1,1.11-.15,1.66l-.49.07Z"/><path class="cls-4" d="M310.69,153.06c.6-.87,1.13-.78,1.62.11Z"/><path class="cls-4" d="M304.42,153.08c.48-.84,1-.93,1.61-.12Z"/><path class="cls-4" d="M299.73,153c.56-.84,1.09-.8,1.59.05Z"/><path class="cls-5" d="M73.91,43.5l1.7-4.77c1-.31,2.6-.34,2.87-1,3.85-8.85,10.85-12.78,19.8-16C105.18,19.3,110,12,118.43,11c4.55-.51,8.87-2.88,7.41-9.1l3-.37c5.9,3.44,10.65,9.27,18.38,8.95-.75,10.14,8.6,14.55,12.55,22,1,1.81,3.19,1.45,5,1.62.05,2.5.66,4.43,3.78,4.36a9,9,0,0,1,7.27,3.23c.63,3.88-2.08,9.75,2,11.18,3.64,1.26,7.56,3.56,11.85,3.07,2.65,6.76-.4,14.48,3.94,21.13,2.05,3.14,3.89,5.93,7.48,7.25,7.49,2.75,10.66,8.75,11.27,16.12.27,3.31,3,5.39,3.09,8.56-4.18.38-8.11,1-9.06-5.14-.38-2.43-3.36-4.19-5.35-6.15-5.5-5.42-12,.07-17.53-2.59-4.12-.59-2.74-3.87-3.07-6.3-2-8.92-7.6-15.55-14-21.51-2.78-2.58-5.75-2.53-7.94,1.11l-7.81-3.14c-1-5-5.11-2.48-7.89-3.13-1.94-4.87-9.28-6.45-8.5-12.67.76-6.06-3.71-10.39-4.12-15.94-.1-1.41-.89-2.51-2.43-2.39s-2.05,1.36-2.1,2.75c-.06,1.55-.05,3.1-.08,4.64-3.81,4.57-1.62,11-4.75,15.74l-6.18-1.55c-.17-1.48.36-3.72-1.47-4-2.54-.36-4.43,1.11-4.87,3.9-.26,1.63-.71,3.14-2.87,2.73a2,2,0,0,1-1.65-2.32c1.56-7.43-7.33-14.56-.56-22.22,1-1.14,0-3-1.59-3.88-1.15-.64-2.5,0-2.36,1C100,32.83,91.93,36.13,97,41.8c.69.78.3,3.24-.42,4.41-2.77,4.55-2.36,9.49-2.33,14.42-3.2-.15-3.17-2.47-3.21-4.76-1-3.14,2.61-7.79-3.08-9.4-.4-1.81.91-4.13-1.57-5.44-2.49,1.31-1.18,3.63-1.57,5.44l0,4.72c-2.75,5.29-7,6.52-12.48,4.73l0-6.19L73,46.43Zm78.31,10.41c.47,1.64-1.08,4.74,2.83,3.78,1.47-.36,3.54-.59,2.78-2.72s-.41-6.07-3.67-6.1C151.25,48.85,152.7,52.09,152.22,53.91Z"/><path class="cls-6" d="M295.16,124.8l3.33,9.35c-2.57.09-5.17.51-7.69.2a24.7,24.7,0,0,1-10.65-4.11c-8.8-5.76-19.11-2.8-28.66-4.39-.81-1.63-1.62-3.27-3.51-1l-3.21-1.41c-1.05-2.7-2-6-4.79-6.87-5.15-1.64-4.62-5.51-4.78-9.33.65-8.81-.09-17.65,1.57-26.46C238.08,73.9,242,73.2,248,73.48c14.58.68,19.27,12.13,25.42,22.15.67,1.09,1.05,2.83,2,3.19C287.38,103.46,290.94,114.36,295.16,124.8Z"/><path class="cls-7" d="M142.83,62.19c2.79.65,6.85-1.91,7.89,3.13-1.23,1.61-2.48,3.25-3.71,4.8-3.63,4.57-3.29,10.87-7.14,15.17-5,5.57-4.51,10.47.92,15.41,2.2,2,3.52,2,4.81-.28,1.61-2.86,3.75-4.47,7-3.28,3.48,1.29,2.72,4.57,2.87,7.35-6.57.15-3.38,5.84-4.28,8.8-4.41,0-4.7-7.69-10-4.08-2.4-3.84-5.91-4.59-10.2-4.34-1,.06-1.35-4.47-4.14-2.72-2.29,1.43-.21,3.7.12,5.6.86,4.94-.34,7.12-5.53,4.17a16.9,16.9,0,0,0-3.64-1.11c-1.86-5.35.23-10.69.3-16,0-3.4,1-6.11-3.46-6.69-3.62-.46-7.71-3-9.74,2.7-1.81,5.11-3.87,4.59-6.54.31-5.83-9.33-14.69-1.64-22-3.32-3.5-.8-1.91,5.23-4,7.41l-1.6-.06c-3.64-.62-6.55,1-9.29,3.08l1.7-15.26,3.15-8.19c3.45-1.19,6.43-1.6,10,.74,3,1.93,7.34,1.8,8.37-3.27.67-3.28,1.81-4.08,4.48-1.89,2,1.64,4.38,1.18,6.66,1.26,1.54,2.23.79,9.41,5,5.56,4-3.69,4.89-4.67,8.29-.39a6,6,0,0,0,6.17,1.79c1.42-3-3.11-5-.72-8.24.9.5,1.72,1,2.61,1.44,4,1.77,4.61,9.64,8.45,8.18,4.84-1.83-1.52-7.85.93-11.93.92-1.54,1-4.88-.39-4.8-8.07.45-4.37-5.48-5.26-8.89,3.13-4.78.95-11.16,4.75-15.73,1.7,2.61,1,5.12.36,8C124.32,53.76,135.22,63.6,142.83,62.19Z"/><path class="cls-6" d="M6.68,133.1c-1-3,1.37-5.49,1-8.36,1.88-3.69,3.44-7.33,3.63-11.69.56-13,10.74-19.5,19.57-26.44,3.31-2.61,7.61-1.09,9.64,3.32.94,2,.5,4.66,2.66,6.13C50,93.44,51,83.29,59.79,83.33c-.41,14.45-2.33,17.7-12.64,21.32-7.24-1.17-12.06.58-11.19,9.24l-4.43,1.67c-4.45.73-6.72,3.75-8.11,7.69-4.46,2.12-9.2,3.9-11.13,9.12Z"/><path class="cls-8" d="M183.59,95.17c5.5,2.66,12-2.82,17.53,2.59,2,2,5,3.72,5.35,6.15,1,6.12,4.88,5.52,9.06,5.14l4,2.82a3.09,3.09,0,0,0,.27.92l1.57,7.3-22.09.26-4.53.14-3.33.1-2.85,0-3.31-3.43C186.12,109.68,183.7,102.51,183.59,95.17Z"/><path class="cls-8" d="M95.8,71.6c-2.28-.09-4.66.37-6.66-1.26-2.68-2.19-3.82-1.39-4.48,1.89-1,5.08-5.38,5.21-8.37,3.27-3.61-2.33-6.6-1.93-10-.74l2.23-9.49.82-2.88q.59-2.54,1.17-5.08a2.07,2.07,0,0,0,.4-1.14L70.9,56q.7,0,1.39-.1c5.43,1.79,9.73.57,12.48-4.73,2.15,1.48,2.73,5,6.26,4.67,0,2.28,0,4.61,3.21,4.76,2.16,3.42,1.44,7.26,1.55,11Z"/><path class="cls-9" d="M125.83,1.94c1.46,6.21-2.86,8.59-7.41,9.1C110,12,105.18,19.3,98.28,21.77c-9,3.21-16,7.15-19.8,16-.27.62-1.88.65-2.87,1C83.24,14,102.34,5,125.83,1.94Z"/><path class="cls-10" d="M189.74,56c-4.3.49-8.22-1.81-11.85-3.07-4.13-1.43-1.42-7.3-2-11.18,4.47.16,1.85-7.05,6.72-6.46C187.07,41.46,188.9,48.55,189.74,56Z"/><path class="cls-11" d="M219.78,112.79a3.14,3.14,0,0,1-.27-.92c4-5.75,10.5-2.91,15.68-4.57.16,3.82-.37,7.69,4.78,9.33,2.75.87,3.74,4.17,4.79,6.86l-6.16-.41-1.82-1.1a5.58,5.58,0,0,1-1.42-.1C232,115.62,227,112.26,219.78,112.79Z"/><path class="cls-11" d="M47.15,104.65C57.46,101,59.38,97.78,59.79,83.33l3.29-.38-1.7,15.26c-2.3,5.77-4.09,11.93-11,14.13Z"/><path class="cls-10" d="M182.56,35.29c-4.88-.59-2.26,6.62-6.72,6.46a9,9,0,0,0-7.27-3.23c-3.12.08-3.73-1.86-3.78-4.36C172.12,29.3,177.77,29.66,182.56,35.29Z"/><path class="cls-10" d="M147.25,10.52c-7.73.32-12.48-5.51-18.38-8.95C137.8-2.39,145.41,1.32,147.25,10.52Z"/><path class="cls-12" d="M359.22,152.35c-13,1.83-26.08.75-39.13.53-.19-2.7-2.35-4.58-3.54-6.65-2.11-3.64-7.9-5.11-9.93-1.75-4.19,6.93-7.43,2.51-8.69-.54-2-4.79-5-5.24-9.09-5a3.4,3.4,0,0,0-3.24-1.52l-1.47,0c-2.8-2.61-6.31-1-9.46-1.6.25-6.39-4.54-4.21-7.82-4.6-2.29.31-4.6.56-6.87,1-5.44.94-11.59,2.14-15.86-1.31-8.84-7.14-17.59-7.29-27.13-2.47-1.24.63-3.18,1.12-3-.43.63-7.34-4.78-3.89-7.76-4.56-2.55-.57-6,1.18-6.92-3.07l22.09-.25c4.76-.09,9.16,2.6,14,1.79a5.53,5.53,0,0,0,1.42.1l1.82,1.1,6.16.41L248,124.9c.84,1.51,2.09,1.55,3.51,1,9.55,1.59,19.86-1.37,28.66,4.39a24.7,24.7,0,0,0,10.65,4.11c2.52.31,5.12-.11,7.69-.2,3.35,1.52,6.63,3.21,10.41,3.42a8.13,8.13,0,0,0,9,2.87c7.91-2.57,15.06.58,22.44,2.19,3.75,2.43,6.14,7.45,12.47,4,3.32-1.79,5.71,2,6.41,5.63Z"/><path class="cls-13" d="M72.88,114.74a3.19,3.19,0,0,0,3.12-3l4.44-.19q0,1.44-.1,2.89a19.55,19.55,0,0,0-4.73,9.43L74,125.43l-4.72-.05C70.13,121.71,73.69,119,72.88,114.74Z"/><path class="cls-13" d="M61.56,128.68c-2.17-.18-4.62.78-6.25-1.56L68,125.77q0,1.35,0,2.71Z"/><path class="cls-14" d="M67.95,128.48q0-1.36,0-2.71a6.37,6.37,0,0,1,1.31-.39l4.72.05q.09,1.5.19,3l-1.75.21Z"/><path class="cls-15" d="M155.42,104.48c-.14-2.78.62-6.06-2.87-7.35-3.21-1.19-5.35.43-7,3.28-1.28,2.27-2.61,2.29-4.81.28-5.43-4.94-5.89-9.84-.92-15.41,3.85-4.31,3.51-10.61,7.14-15.17,1.23-1.55,2.48-3.19,3.71-4.8l7.81,3.14c2.59,4.64,5.26,9.21-.22,13.8-1.75,1.47-.53,3.35,0,5,1.7,5.19,2.47,10.4.21,15.65A3,3,0,0,1,155.42,104.48Z"/><path class="cls-13" d="M158.55,102.95c2.26-5.25,1.49-10.46-.21-15.65-.55-1.69-1.77-3.56,0-5,5.48-4.59,2.8-9.17.22-13.8,2.19-3.64,5.15-3.69,7.94-1.11,6.45,6,12,12.59,14,21.51-8.6-1.3-8.37,6.26-11,11C165.14,98.29,162.67,103.53,158.55,102.95Z"/><path class="cls-8" d="M120.84,54.32c.89,3.4-2.82,9.34,5.26,8.89,1.42-.08,1.31,3.26.39,4.8-2.45,4.08,3.91,10.1-.93,11.93-3.84,1.45-4.43-6.42-8.45-8.18-.89-.39-1.71-.94-2.61-1.44-2.39,3.23,2.14,5.28.72,8.24A6,6,0,0,1,109,76.76c-3.4-4.28-4.29-3.3-8.29.39-4.18,3.85-3.43-3.32-5-5.56h0c5.21-1.4,8-9,14.93-5.94.25-2,.49-4.06.77-6.09.35-2.59-1.25-6.11,3.18-6.8Z"/><path class="cls-13" d="M114.66,52.78c-4.42.69-2.82,4.21-3.18,6.8-.28,2-.51,4.06-.77,6.09-7-3-9.72,4.54-14.93,5.94-.11-3.71.61-7.54-1.55-11,0-4.93-.44-9.87,2.33-14.42.72-1.18,1.11-3.64.42-4.41-5.05-5.67,3.06-9,2.31-13.84-.14-.94,1.21-1.6,2.36-1,1.56.87,2.59,2.74,1.59,3.88-6.77,7.66,2.13,14.79.56,22.22a2,2,0,0,0,1.65,2.32c2.16.41,2.61-1.1,2.87-2.73.45-2.79,2.34-4.26,4.87-3.9C115,49.06,114.5,51.3,114.66,52.78Z"/><path class="cls-14" d="M169.53,99.82c2.62-4.69,2.39-12.25,11-11,.33,2.44-1,5.71,3.07,6.3.11,7.34,2.53,14.51,1.63,21.93C179.22,112,176,104.45,169.53,99.82Z"/><path class="cls-8" d="M142.83,62.19c-7.61,1.41-18.51-8.43-16.87-15.6.66-2.88,1.34-5.39-.36-8,0-1.55,0-3.1.08-4.65.05-1.39.55-2.63,2.1-2.75s2.33,1,2.43,2.39c.41,5.54,4.88,9.88,4.12,15.94C133.55,55.74,140.89,57.32,142.83,62.19Z"/><path class="cls-13" d="M91,55.88c-3.53.38-4.11-3.19-6.26-4.67q0-2.36,0-4.72h3.14C93.64,48.08,90,52.74,91,55.88Z"/><path class="cls-13" d="M152.22,53.91c.48-1.81-1-5.06,1.94-5,3.26,0,2.87,3.84,3.67,6.1s-1.3,2.36-2.78,2.72C151.14,58.65,152.68,55.55,152.22,53.91Z"/><path class="cls-8" d="M87.95,46.48H84.81c.39-1.82-.92-4.13,1.57-5.44C88.86,42.34,87.55,44.66,87.95,46.48Z"/><path class="cls-13" d="M251.49,125.86c-1.42.59-2.67.55-3.51-1C249.86,122.59,250.67,124.22,251.49,125.86Z"/><path class="cls-15" d="M128.84,152.36l-25.48,1.14c.05-.56.1-1.11.15-1.66,2.16-1.61,2.07-6.14,6.4-4.91,7.65-.15,11-3.13,9.95-8.64-.35-1.77-.24-3.64-.63-5.4-1.2-5.47-5.16-9-9.55-11.7s-4.64,2.45-6.61,4.3a4,4,0,0,1-4.39.72c-4.93-2-6.59.95-7.73,4.84l-9.26.12c.63-7-2.11-11.55-9.45-12.5a5.45,5.45,0,0,1-4-2.07c-.94-1.29-1.89-2.77-3.7-1.51-1.55,1.08-1.23,2.63-.62,4.22,1.62,4.24-.17,6.32-4.08,8.44S49.56,133.21,50,137c.87,8.39-3.63,5.56-7.48,5.21-.2-1.14-.18-2.48-1.91-2.36a.71.71,0,0,0-.49.49C40,142,41.3,142,42.44,142.21l-1.54,1.57c-1.29-.06-2.48-.31-3.16-1.59l-3.13-7.84h0c2.57-.89,4.37,4,6.66,1.41s-1.15-5-1.88-7.46a22.63,22.63,0,0,0-1.63-3.42c4.4-.92,7-2.35,1.77-5.95,4.93-1.2,9.22-.3,12.22,6.19,1.26-7.1,2.94-11.69,9.45-12.33a3.43,3.43,0,0,0,2.65-4.22c-1.56-5,2.4-4.72,5.16-5.63,2.43,1.37,6,1.83,6.22,5.29.58,7.83,4.63,6.89,9.6,4.17.9,2.88-2.23,7,2.28,8.57,1,.35,4.4,0,4.24-2.09-.27-3.59-2.6-6.07-6.51-6.49.06-3.11-2.73-3.84-4.42-5.59-3.27-3.4-9.3-5.06-8.13-11.6,2.13-2.18.55-8.22,4-7.41,7.33,1.68,16.18-6,22,3.32,2.67,4.28,4.73,4.79,6.54-.31,2-5.72,6.12-3.16,9.74-2.7,4.5.57,3.5,3.29,3.46,6.69-.07,5.33-2.16,10.67-.3,16,1.15,6.84,8.5,10.24,9.54,17.14-2.4,1.33-1.1,4.44-2.89,6-1.23,1.1-2.37,2.4-1.25,3.93s3.4,1.54,5,.93c3.31-1.27,6.42-3,9.63-4.58s5.45-1.13,5.09,3.21l-4.68,3.23a4.6,4.6,0,0,0-4.76,3C128.65,144.86,129,148.72,128.84,152.36Z"/><path class="cls-12" d="M142.88,137.47c.36-4.34-1.74-4.81-5.09-3.21s-6.32,3.3-9.63,4.58c-1.59.61-3.78.71-5-.93s0-2.83,1.25-3.93c1.79-1.6.49-4.71,2.89-6,9.13-2.91,9.61-12.21,13.85-18.74,5.28-3.61,5.57,4.1,10,4.08.91-3-2.28-8.65,4.28-8.8a3,3,0,0,0,3.12-1.54c4.13.58,6.59-4.65,11-3.13,6.48,4.63,9.69,12.22,15.69,17.28l3.31,3.43c-.38,1.62.13,4.43-2.62,3.71-6.71-1.73-13.51-.1-20.18-1-13.48-1.85-13.47-1.93-18.28,9.57a3.15,3.15,0,0,0-1.53,3l-1.52,1.69Zm23-31.62-1-.87a5.14,5.14,0,0,0-.39,1.12c0,.13.43.48.53.44A4.7,4.7,0,0,0,165.87,105.85Z"/><path class="cls-8" d="M69,102.94c-2.76.91-6.72.58-5.16,5.63a3.43,3.43,0,0,1-2.65,4.22c-6.5.64-8.19,5.23-9.45,12.33-3-6.49-7.29-7.38-12.22-6.19,5.21,3.6,2.64,5-1.77,5.95A14.54,14.54,0,0,0,35,123.83c-3.09,5-7.84,4.78-12.82,4.54-1.1-.05-2.3,1.78-3.45,2.75l-6.06,1.68-.38-.44c1.93-5.21,6.67-7,11.14-9.11,4.65-.52,7.07-3.37,8.11-7.69L36,113.88c4.61-2.38,9.6-1.2,14.43-1.54,6.89-2.2,8.69-8.36,11-14.13,2.74-2.11,5.65-3.71,9.29-3.08C69.22,97.54,69,100.22,69,102.94Z"/><path class="cls-8" d="M141.16,109.2c-4.24,6.52-4.72,15.83-13.85,18.74-1-6.9-8.39-10.29-9.54-17.14a16.89,16.89,0,0,1,3.64,1.11c5.19,3,6.39.78,5.53-4.17-.33-1.9-2.4-4.16-.12-5.6,2.8-1.75,3.18,2.77,4.14,2.72C135.25,104.62,138.76,105.36,141.16,109.2Z"/><path class="cls-12" d="M69,102.94c0-2.72.23-5.4,1.68-7.81l1.6.06c-1.17,6.54,4.86,8.2,8.13,11.6,1.69,1.76,4.48,2.48,4.42,5.59h0c-5,2.72-9,3.67-9.6-4.17C74.94,104.77,71.41,104.3,69,102.94Z"/><path class="cls-8" d="M7.76,138.73l.1-2.89q.13-1.49.25-3l5.61-.73.37.44C13.92,136.61,10.51,137.33,7.76,138.73Z"/><path class="cls-13" d="M50.39,112.34c-4.83.34-9.82-.84-14.43,1.54-.88-8.65,4-10.41,11.19-9.24Z"/><path class="cls-13" d="M33.94,113.87c-1.46,6-4.88,9.89-11.42,10.61C24.49,119,27.68,114.87,33.94,113.87Z"/><path class="cls-16" d="M147.45,132.8c4.81-11.5,4.8-11.42,18.28-9.57,6.67.92,13.47-.72,20.18,1,2.75.71,2.25-2.09,2.62-3.71l2.85,0c1.15,1.33,2.26,1.22,3.33-.09l4.53-.14c.89,4.26,4.37,2.5,6.92,3.08,3,.67,8.39-2.78,7.76,4.56-.13,1.55,1.8,1.06,3,.43,9.54-4.82,18.29-4.67,27.13,2.47,4.28,3.46,10.42,2.26,15.86,1.31,2.28-.39,4.58-.64,6.87-1,.15,5.7,3.27,6.37,7.82,4.6,3.15.57,6.66-1,9.46,1.61.46,1.16,1,1.11,1.47,0a3.4,3.4,0,0,1,3.24,1.52c-.29,4.85,5.42,7.51,4.6,12.56a5.84,5.84,0,0,0-.09,1.27l-4.56.4c-6.23-2.67-12.5-2.3-18.79-.26l-4.9-.1c-2.06-1.63-4.06-1.86-6,.21l-9.75.15c-.92-1.54-1.84-1.62-2.77,0l-41.23.38-4.16-.15-27.2.16-2.65-.05-17.66.61L150.8,154l-9.58-.68,1.53-4.94,1.55-1.62c5.92,3.71,9-.27,10.11-4.87S153,133.35,147.45,132.8Zm52.77,7.29c.19-2.87-2.19-3.12-3.51-2.21-4.41,3-9.19,5.23-13.88,7.69-1.43.75-3.06,2.61-.48,4.21C185.9,152,199.92,144.33,200.23,140.08ZM186,131.38c-4.24.65-6.78,1-9.29,1.45-1.77.34-4.85-1.18-4.79,2.07a5.51,5.51,0,0,0,4.48,4.83,24.48,24.48,0,0,0,9.79-1c2.27-.69,1-3.63,1.37-5.48C188.08,131.15,185.8,131.37,186,131.38ZM228.52,134c-.73-1.81-2.08-2.94-3.67-2-2.07,1.23-5.91-.52-6.27,3.25-.19,2,2,2.57,3.37,1.72C224,135.67,227.41,137.12,228.52,134Z"/><path class="cls-13" d="M235.36,121.87c-4.85.81-9.25-1.88-14-1.79l-1.57-7.3C227,112.26,232,115.62,235.36,121.87Z"/><path class="cls-12" d="M194.72,120.48c-1.08,1.31-2.18,1.43-3.33.09Z"/><path class="cls-13" d="M238.6,123.07l-1.82-1.1Z"/><path class="cls-16" d="M109.91,146.92c-4.33-1.22-4.24,3.31-6.4,4.91a1.3,1.3,0,0,0-1.14,1.69l-39.5-.4c3.33-7.72,9.81-13.24,14.12-20.27,1.72-.11,3.6.2,4.69-1.68l9.26-.11c2.71,1.38,5.28,3.17,8.14,4C105.16,137,108.74,140.75,109.91,146.92Z"/><path class="cls-12" d="M37.74,142.19c.68,1.27,1.87,1.53,3.16,1.59q0,4.65,0,9.3c-13.56.48-27.12.72-40.67-.12q-.09-1.5-.19-3l1.6-1.55c3,.29,6-.35,7.56-2.92,3.38-5.55,8.92-7.52,14.44-9.68A16.9,16.9,0,0,0,37.74,142.19Z"/><path class="cls-12" d="M40.86,153.08q0-4.65,0-9.3l1.54-1.57,0,0c3.85.34,8.36,3.17,7.48-5.21-.39-3.76,5.86-7.05,9.85-9.22s5.71-4.2,4.08-8.44c-.61-1.59-.93-3.13.62-4.22,1.82-1.27,2.76.21,3.7,1.51a5.45,5.45,0,0,0,4,2.07c7.35,1,10.08,5.47,9.45,12.5-1.09,1.89-3,1.57-4.69,1.68l-5.88-8.27c-6.12,1.13-6.1,8.19-10.49,10.72-6.49,3.73-8.8,9.2-8.75,16.2l-1.58,2.1-4.66-.27-1.57-.06Z"/><path class="cls-12" d="M51.88,151.51c0-7,2.26-12.47,8.75-16.2,4.4-2.53,4.37-9.59,10.49-10.72L77,132.86c-4.31,7-10.79,12.56-14.12,20.27l-9.48.12Z"/><path class="cls-12" d="M293.43,151.55c.82-5-4.88-7.7-4.6-12.56,4.08-.29,7.1.16,9.09,5,1.26,3,4.5,7.47,8.69.54,2-3.35,7.82-1.89,9.93,1.75,1.2,2.07,3.36,3.95,3.54,6.65l-7.78.29c-.48-.89-1-1-1.62-.11L306,153c-.6-.82-1.13-.73-1.61.12h-3.1c-.5-.85-1-.9-1.59-.05l-3.15.12C295.91,151.89,294.68,151.7,293.43,151.55Z"/><path class="cls-12" d="M142.74,148.38l-1.53,4.94-3.27-.09c-1.64-.3-3.27-.56-4.55.92l-4.55-1.79c.12-3.64-.19-7.5,4.6-8.65l1.69,1.6C136,150.48,140,147.76,142.74,148.38Z"/><path class="cls-8" d="M67.95,128.48l4.5.17-1.79,1.46c-3-.42-6.39,1.12-9.1-1.43Z"/><path class="cls-12" d="M274.66,135.83c-4.55,1.77-7.67,1.1-7.82-4.6C270.12,131.62,274.91,129.45,274.66,135.83Z"/><path class="cls-12" d="M285.59,137.48c-.52,1.07-1,1.12-1.47,0Z"/><path class="cls-14" d="M25,135.56c-5.52,2.16-11.06,4.13-14.44,9.68C9,147.81,6,148.45,3,148.16a19.54,19.54,0,0,1,4.73-9.43c2.76-1.4,6.17-2.12,6.33-6.17l6.06-1.68C22.14,132.06,24.89,132.45,25,135.56Z"/><path class="cls-12" d="M109.91,146.92c-1.17-6.17-4.75-10-10.82-11.83-2.86-.87-5.44-2.66-8.14-4,1.14-3.9,2.8-6.84,7.72-4.85a4,4,0,0,0,4.39-.72c2-1.85,2.14-7.08,6.61-4.3s8.34,6.23,9.55,11.7c.39,1.76.28,3.63.63,5.4C120.94,143.8,117.56,146.77,109.91,146.92Z"/><path class="cls-12" d="M23.6,135.8c-.14-3.11-2.9-3.49-4.88-4.68,1.15-1,2.35-2.81,3.45-2.75,5,.24,9.72.49,12.82-4.54a14.54,14.54,0,0,1,2.76,1.05,22.59,22.59,0,0,1,1.63,3.42c.73,2.5,4.25,4.77,1.88,7.46s-4.09-2.3-6.66-1.41c-.41-.54.72-2.17-1.17-1.67l1.18,1.66,3.13,7.84A16.9,16.9,0,0,1,23.6,135.8Z"/><path class="cls-12" d="M147.45,132.8c5.58.55,8.06,4.39,6.95,9.1s-4.19,8.58-10.11,4.87c-.47-4.26-3.93-2.48-6.21-3.08l.12-3,4.68-3.23h1.52c.73-.37,3.11.75,1.52-1.69A3.15,3.15,0,0,1,147.45,132.8Z"/><path class="cls-12" d="M84.82,112.38c3.91.42,6.24,2.9,6.51,6.49.16,2.13-3.23,2.44-4.24,2.09-4.52-1.58-1.39-5.7-2.28-8.57Z"/><path class="cls-12" d="M138.2,140.7q-.06,1.49-.12,3l-3,1.63-1.69-1.6A4.6,4.6,0,0,1,138.2,140.7Z"/><path class="cls-12" d="M42.44,142.21C41.3,142,40,142,40.07,140.31a.71.71,0,0,1,.49-.49c1.73-.11,1.7,1.22,1.91,2.36Z"/><path class="cls-13" d="M165.87,105.86a4.8,4.8,0,0,1-.9.68c-.1,0-.54-.31-.53-.44a5.14,5.14,0,0,1,.39-1.12Z"/><path class="cls-17" d="M145.92,135.78c1.59,2.44-.79,1.33-1.52,1.69Z"/><path class="cls-12" d="M200.23,140.08c-.31,4.24-14.33,11.88-17.87,9.68-2.58-1.6-.95-3.45.48-4.21,4.68-2.46,9.47-4.67,13.88-7.69C198,137,200.42,137.22,200.23,140.08Z"/><path class="cls-12" d="M186,131.38c-.23,0,2-.23,1.56,1.89-.42,1.85.9,4.79-1.37,5.48a24.48,24.48,0,0,1-9.79,1A5.51,5.51,0,0,1,172,134.9c-.06-3.25,3-1.73,4.79-2.07C179.25,132.34,181.79,132,186,131.38Z"/><path class="cls-15" d="M228.52,134c-1.12,3.15-4.49,1.7-6.57,3-1.4.86-3.56.31-3.37-1.72.35-3.77,4.2-2,6.27-3.25C226.45,131,227.79,132.16,228.52,134Z"/><path class="cls-14" d="M135.13,145.31l3-1.63c2.28.6,5.74-1.18,6.21,3.08l-1.55,1.62C140,147.76,136,150.48,135.13,145.31Z"/><path class="cls-14" d="M36,134.1l-1.18-1.66c1.89-.5.76,1.12,1.17,1.67Z"/></svg>