<svg id="L" xmlns="http://www.w3.org/2000/svg" viewBox="0 0 66.35 157.29"><defs><style>.cls-1{fill:#37a59b;}</style></defs><title>L</title><path class="cls-1" d="M60.72,153.23q-14.6,2-29.19,3.91a9.15,9.15,0,0,1-3.08,0C20.91,155.52,8.58,138.65,9,129.5c2.57.92,4.82,1.86,7.14,2.53,6.19,1.79,9.71-.92,10.9-7.24.78-4.13,2.71-8,4.16-12,.26-.72,1.07-1.39,1-2-.61-10.64-1.31-21.28-2-31.91-.17-2.56-.55-5.13-.47-7.69q.57-17.49,1.38-35c.25-5.38-1.78-8.09-7.47-8.52a97.32,97.32,0,0,1-16-2.83C5.61,24.27,3.88,22.36,0,19.73c4.46-.88,6.38-1.68,8.24-1.56C23.91,19.11,36,11,47.66,2.3c4.78-3.56,6.43-2.89,10.42,1.38,10.55,11.31,7.77,24.91,8.28,38,.06,1.59-1.31,3.25-2.06,4.86-.88,1.87-3,4.2-2.51,5.48,2.71,6.75.32,13-.16,19.64-1.39,19.46-.63,39.07-.75,58.62a57.21,57.21,0,0,0,.22,7.32"/></svg>