<svg id="Stone" xmlns="http://www.w3.org/2000/svg" viewBox="0 0 11.05 14.17"><defs><style>.cls-1{fill:#33b782;}.cls-2{fill:#33b681;}.cls-3{fill:#44bb8c;}.cls-4{fill:#42bb8d;}.cls-5{fill:#46bb8b;}.cls-6{fill:#29b47c;}.cls-7{fill:#4dbc8b;}.cls-8{fill:#54bf99;}.cls-9{fill:#57c09d;}.cls-10{fill:#44bb8b;}.cls-11{fill:#4bbd93;}.cls-12{fill:#57c09f;}.cls-13{fill:#5abe86;}.cls-14{fill:#4fbd95;}.cls-15{fill:#3ab882;}.cls-16{fill:#43bb8d;}.cls-17{fill:#35b883;}.cls-18{fill:#51be97;}.cls-19{fill:#28b57c;}.cls-20{fill:#29b67d;}.cls-21{fill:#2ab67b;}.cls-22{fill:#41b983;}.cls-23{fill:#3bb984;}.cls-24{fill:#36b883;}.cls-25{fill:#43ba8b;}.cls-26{fill:#40ba87;}.cls-27{fill:#3fba88;}.cls-28{fill:#45bb88;}.cls-29{fill:#58c09d;}.cls-30{fill:#4ebd94;}.cls-31{fill:#25b478;}.cls-32{fill:#26b378;}.cls-33{fill:#47bb8e;}.cls-34{fill:#54bc7e;}</style></defs><title>Stone</title><path class="cls-1" d="M10.53,10.36a.08.08,0,0,0,0,.1c-.1.13,0,.34-.15.45h0c-.06.09,0,.21-.13.29h0c-.08.07-.06.21-.15.27h0c-.07.08,0,.22-.15.28h0c-.07.08,0,.22-.16.28h0a.43.43,0,0,1-.13.16h0c-.09.07-.05.21-.17.27h0a.28.28,0,0,1-.15.16h0a.42.42,0,0,1-.14.15h0a.49.49,0,0,1-.15.14h0a.41.41,0,0,1-.15.14h0a.4.4,0,0,1-.15.15h0a.34.34,0,0,1-.15.14h0c-.06.11-.2.07-.27.16h0a.65.65,0,0,1-.15.13h0c-.06.1-.2.07-.27.15H8c-.07.09-.2.06-.28.14h0c-.08.08-.2.07-.29.13h0c-.1.15-.3,0-.42.15H7a6.74,6.74,0,0,1-2.23,0l0,0,0,0c-.18-.12-.43,0-.6-.14h0c-.12-.12-.31,0-.42-.15h0c-.08-.07-.21-.05-.29-.13h0c-.07-.09-.2-.06-.26-.16h0c-.08-.07-.21,0-.28-.14h0c-.08-.07-.21,0-.28-.15h0a.71.71,0,0,1-.15-.13h0l-.13-.14h0l-.14-.13h0c-.06-.1-.21-.06-.25-.18h0c-.18,0-.22-.19-.28-.33A5.71,5.71,0,0,1,.88,8a2.11,2.11,0,0,1,.38-.88c.11-.14.23-.35.43-.31s.21.31.2.51c-.19,1.59-.6,3.19,0,4.47a7.55,7.55,0,0,1,.42-5.22A6.08,6.08,0,0,1,4.5,3.71a2.28,2.28,0,0,1,2.77.41,1.35,1.35,0,0,1,.11.17,1.23,1.23,0,0,1,.08.18c0,.15.09.3.14.44a1,1,0,0,1,0,.27,3.17,3.17,0,0,1-.08.64.18.18,0,0,1-.17.08.42.42,0,0,1-.29-.27C7,5,6.79,4.32,6,4.14a1.81,1.81,0,0,0-1.92.68,7.51,7.51,0,0,0-1.56,6.64c.07,1.17,1.13,1.33,1.87,1.82s1.52.1,2.22-.29c.41-.22.28-.71.5-1a.26.26,0,0,1,.28,0c.14.13.16.31.19.56A1.17,1.17,0,0,1,8.26,12c-.31,0-.57.18-.81,0s-.39,0-.56-.13,0-.26.11-.25c.62,0,1.08-.39,1.64-.53.51.08.8-.28,1.13-.57s.38-.49.76-.36a.12.12,0,0,1,0,.11S10.54,10.36,10.53,10.36Z"/><path class="cls-2" d="M.35,10.22a.07.07,0,0,0,0-.1C.22,10,.32,9.82.21,9.7h0C0,9.54.22,9.3.08,9.14A.16.16,0,0,0,.05,9a15.34,15.34,0,0,1,0-3.07.05.05,0,0,0,0-.08c.11-.19,0-.43.14-.61h0c.15-.16,0-.41.15-.56h0c.12-.12,0-.31.13-.43a.06.06,0,0,0,0-.09c.1-.14,0-.34.16-.46v0a.29.29,0,0,1,.14-.12A5.23,5.23,0,0,1,2.44,1.94c.17-.12.32-.27.56-.2a.34.34,0,0,1,.15.37.85.85,0,0,1-.83.59c.58,0,.65.11.46.78-.38.22-.72.24-.95-.18A4.91,4.91,0,0,0,1.52,5c0,.09,0,0,0,.07C1,5.83,1.09,6.79.88,7.65a6.21,6.21,0,0,0,0,2.75.31.31,0,0,1-.14.3c-.13,0-.19-.06-.26-.14v0A2.48,2.48,0,0,1,.35,10.22Z"/><path class="cls-3" d="M.61,10.69c.14-.1.12-.22.1-.37A7.25,7.25,0,0,1,.83,7c.08-.28-.11-.64.27-.85.07,0-.14-.2-.2-.32s-.29-.5.22-.46c.27,0,.26-.24.23-.41a4.09,4.09,0,0,1,.46-2c.2.11.08.44.33.45l.62,0,0,.09c-.17.27-.52.29-.7.54,0,.09-.25,0-.18.21a.23.23,0,0,1,.31,0,6.45,6.45,0,0,1-.67,1.83A14.9,14.9,0,0,1,2.92,3.94c.18-.2.31-.48.66-.41a.36.36,0,0,1,.19.23A24.81,24.81,0,0,0,2.3,6.34c-.24.31,0,.86-.55,1V6.91A2.51,2.51,0,0,0,.91,9a6.64,6.64,0,0,0,.65,2.93c.06.15.11.3.16.45s-.09.08-.12,0h0a.28.28,0,0,1-.15-.15h0a1.85,1.85,0,0,1-.3-.41h0A.3.3,0,0,1,1,11.6a.06.06,0,0,0,0-.08L.9,11.37h0c-.11-.05-.07-.2-.16-.26h0a.64.64,0,0,1-.11-.18.1.1,0,0,0,0-.11A.08.08,0,0,1,.61,10.69Z"/><path class="cls-4" d="M2.92,1.78A10.63,10.63,0,0,0,.81,3.71a.1.1,0,0,1,0-.08s0,0,0,0a.11.11,0,0,0,0-.11l.1-.17,0-.13C1,3.09,1,3,1.11,2.88h0a.89.89,0,0,0,.1-.14.12.12,0,0,0,0-.12l.1-.16a.1.1,0,0,0,0-.1.19.19,0,0,1,.14-.11,7.54,7.54,0,0,1,1.31-1L3,1.19,3.29,1C5.69-.4,8.94,1.22,10,3.55a6,6,0,0,1,.15,5.09A1.58,1.58,0,0,1,8.95,9.72c-.3-.19-.06-.35,0-.49.22-.32.46-.61.68-.93s.19-.48.36-.73c-.19.22-.18.5-.34.69s-.17.42-.46.24A.61.61,0,0,1,9.33,8a4,4,0,0,0,.5-2.62A1.61,1.61,0,0,0,9.8,5c0-.05,0-.11,0-.16s0-.16-.07-.24l-.07-.15c0-.1-.11-.21-.16-.31L9.37,4A4.38,4.38,0,0,0,3.44,1.59,3.31,3.31,0,0,1,2.92,1.78Z"/><path class="cls-5" d="M8.69,11.18a2.08,2.08,0,0,0-.3.15,1.47,1.47,0,0,1-1.29.4c-.09,0-.17.05-.23.12-.27.25-.54.15-.82,0l-.17-.12-.09-.06c-.26-.22-.66-.16-.89-.42.1-.35.39-.27.62-.25a9.77,9.77,0,0,0,2.39-.37c.15,0-.06-.1-.07-.17.07-.37.4-.26.62-.37L8.75,10A1.31,1.31,0,0,0,9,9.86a3.57,3.57,0,0,0,1.55-3.14,6.27,6.27,0,0,0-.24-2.39.52.52,0,0,1,0-.21A.24.24,0,0,1,10.53,4a.23.23,0,0,1,.19.08v.28c.09.15,0,.32.1.47a.06.06,0,0,0,0,.08c.16.22,0,.5.13.72l0,.26a10,10,0,0,1,0,1.63A5.19,5.19,0,0,1,9.46,10.6a3.1,3.1,0,0,0-.24.27.58.58,0,0,1-.12.11L9,11.06l-.07,0-.14.07Z"/><path class="cls-6" d="M9,10.9h.14c.09-.07.06-.2.14-.28A8,8,0,0,0,11,7.71a1.53,1.53,0,0,1,0,1,.08.08,0,0,0,0,.1c-.08.14,0,.31-.1.45l0,.25c-.13.17,0,.42-.15.59h0c0,.06-.05.15-.15.15a.74.74,0,0,0-.59.42c-.18.3-.52.37-.74.6a.31.31,0,0,1-.48-.06h0A1.08,1.08,0,0,0,8.84,11h0Z"/><path class="cls-7" d="M7.26.25l.13,0,.15.09.14,0a.61.61,0,0,0,.14.1.1.1,0,0,0,.1.05A.49.49,0,0,1,8.1.7h0c.06.1.19.06.26.14h0a.18.18,0,0,1,0,.21c-.25.26-.52.14-.77,0A4.69,4.69,0,0,0,3.83.79.52.52,0,0,1,3.39.73a.12.12,0,0,1,0-.19.13.13,0,0,0,.12,0c.08-.06.2,0,.27-.12h0A.5.5,0,0,1,4,.27a.11.11,0,0,0,.11,0c.13-.1.31,0,.44-.11a.12.12,0,0,0,.12,0c.23-.13.49,0,.72-.11a2.22,2.22,0,0,0,.78,0c.23.13.49,0,.72.11l.23,0C7.14.17,7.19.23,7.26.25Z"/><path class="cls-5" d="M10.56,3.58a.06.06,0,0,0,0,.08.29.29,0,0,1,0,.25c0,.08-.13.11-.2.17h0c-.45-.17-.13-.38,0-.58Q10.54,3.44,10.56,3.58Z"/><path class="cls-8" d="M7.87,10.47c.19,0,.41-.07.59.08,0,.15-.14.18-.26.2a7.76,7.76,0,0,1-2.9.39.35.35,0,0,0-.38.12c-.12.17-.31.18-.48.24-.8.29-1.36.29-1.18-.91a1.43,1.43,0,0,0-.06-.69.92.92,0,0,1,0-.61,1.62,1.62,0,0,0,.05.78c0,.27.17.61-.22.78-.58-.6-.29-1.36-.29-2a1.64,1.64,0,0,1,.43-1.36C2.59,8,2.48,10,3,11a2.55,2.55,0,0,1,.26.82c0,.19,0,.39-.24.43s-.3-.15-.39-.32a3.11,3.11,0,0,0-.18-.44,5.9,5.9,0,0,1,0-3.61,10.13,10.13,0,0,1,.76-2.08,4.89,4.89,0,0,1,1-1.38,1.94,1.94,0,0,1,2-.49,1.55,1.55,0,0,1,1,1.73.32.32,0,0,1-.14.37,1.62,1.62,0,0,1-1,.21c-.2,0-.42,0-.54.2l-.08.16A1.85,1.85,0,0,0,6.71,9a2.25,2.25,0,0,0,2.13-.34.71.71,0,0,1,.44-.17l.42-.28h0a3.23,3.23,0,0,1-.85,1.39c0,.13-.05.2-.15.25-1.78.53-2.92.22-3.78-1.11a2.21,2.21,0,0,1-.35-2.16A1.51,1.51,0,0,1,5.9,5.57,1.76,1.76,0,0,0,4.47,7.72a3.09,3.09,0,0,0,2.82,2.56A.8.8,0,0,1,7.87,10.47Z"/><path class="cls-9" d="M2.19,6.24a8.23,8.23,0,0,1,1.56-2.5l0-.08a.53.53,0,0,1,.09-.13,1.2,1.2,0,0,1,.26-.18l.21-.12.16-.08a1.27,1.27,0,0,1,.26-.1,2.61,2.61,0,0,1,2.18.37,1.25,1.25,0,0,1,.67.83.42.42,0,0,1,0,.2.13.13,0,0,1-.18,0h0l-.14-.15a2,2,0,0,0-2.58-.48,5.43,5.43,0,0,0-2,2.45l-.14.23c-.11.06-.06.34-.24.25S2.1,6.43,2.19,6.24Z"/><path class="cls-10" d="M2.42,11.54c.17.11.2.31.3.46s.13.22.26.18.11-.23.13-.35a.78.78,0,0,1,.77.46,2.31,2.31,0,0,0,1.23.91c.34.16.55,0,.71-.29s.32-.71.71-.86c.15,0,.31,0,.46-.07a.15.15,0,0,1,.17,0c.07.82,0,1-.77,1.29a.39.39,0,0,0-.12.06c-.94.89-1.71.13-2.52-.25l-.37-.18A1.43,1.43,0,0,1,2.42,11.54Z"/><path class="cls-11" d="M2.19,6.24a.7.7,0,0,0,0,.14c0,.1-.07.24.07.29s.14-.09.21-.14A13.11,13.11,0,0,1,2,8.17a8.15,8.15,0,0,0,.16,3.93c0,.1.13.2,0,.34a3.56,3.56,0,0,1-.73-2.25c0-.91.15-1.83.24-2.74,0,0,.06-.07.09-.1C2,7,1.9,6.55,2.19,6.24Z"/><path class="cls-12" d="M7.5,5.16V4.89a.34.34,0,0,1,0-.42h0A1.43,1.43,0,0,1,7,7a1.6,1.6,0,0,1-.46,0A.54.54,0,0,1,6,6.77a.32.32,0,0,1,0-.21c.33-.29.83-.16,1.16-.46a2.49,2.49,0,0,1,.29-.23h0A1,1,0,0,0,7.5,5.16Z"/><path class="cls-13" d="M6.59,12.13c-.37.17-.47.54-.64.85-.3.52-.31.53-.9.39,0-.38.52-.37.6-.71.12-.17.28-.34.16-.58l-.09-.16a.49.49,0,0,1,0-.18c0-.12,0-.26.22-.18h0l.14.13a1.34,1.34,0,0,0,.83.15c.19,0,.41-.06.56.15H7C6.9,12.12,6.71,12,6.59,12.13Z"/><path class="cls-14" d="M7.43,12A1.77,1.77,0,0,0,8,11.88l.53-.09a.2.2,0,0,1-.12.33,1.07,1.07,0,0,0-.79.83C7.32,12.64,7.47,12.3,7.43,12Z"/><path class="cls-15" d="M7.5,5.16a.51.51,0,0,1,0,.71A1.18,1.18,0,0,1,7.5,5.16Z"/><path class="cls-15" d="M7.49,5.87a.29.29,0,0,1-.14.28A.32.32,0,0,1,7.06,6l.15-.28Z"/><path class="cls-15" d="M7.5,4.47v.42c-.16-.1-.13-.27-.14-.42Z"/><path class="cls-15" d="M7.23,4.33l.14.15Z"/><path class="cls-16" d="M2.77,3.45c0-.63,0-.63-.6-.77.36-.16.72-.26.89-.62a2.39,2.39,0,0,1,2.39-.9c.54.11,1.08.24,1.61.4A1.65,1.65,0,0,1,8.41,3c.08.49.49.88.68,1.35.27.64.1,1-.52,1A.31.31,0,0,1,8.32,5,2.65,2.65,0,0,0,6.92,3c0-.28-.18-.65.3-.69.31,0,.46.16.39.5.08-.31,0-.52-.34-.52-.5,0-.33.39-.39.66-.35-.41-1.19-.12-1.3-.91,0-.16-.28-.06-.42-.1-.35-.1-.7-.26-1,.09,0,0-.11,0-.1.08.16,1-.73,1-1.26,1.4Z"/><path class="cls-17" d="M8.61,5.32c0-.38.1-.43.39,0A1.66,1.66,0,0,0,8.8,4.12,2.84,2.84,0,0,1,8.14,2.7c0-.38-.26-.62-.66-.79a11.69,11.69,0,0,0-2.67-.66A.78.78,0,0,0,4,1.5a2,2,0,0,1-.93.57.29.29,0,0,0-.14-.28A3.32,3.32,0,0,1,5.83,1c.18,0,.36.1.54.13A4.12,4.12,0,0,1,9.6,4.07c-.13.16,0,.35,0,.51a4.42,4.42,0,0,0-.06.74c0,.27,0,.6-.37.63s-.45-.24-.51-.52Z"/><path class="cls-18" d="M2.77,3.45a1.58,1.58,0,0,1,1.15-.74c0-.21-.28-.28-.21-.47s.08-.36.33-.32a.36.36,0,0,1,.13.18.09.09,0,0,0,.09.08c0-.39.15-.55.53-.41.12,0,.24.13.37,0s.46.1.69,0c.06.2-.25.24-.15.33s.32.38.49.28c.5-.29.46.08.53.36,0,.06.08.1.12.15s.09-.06.12,0c1,.21,1.29,1,1.51,1.89,0,.17,0,.38.15.5h0a.3.3,0,0,1,.06.12,3.36,3.36,0,0,1-.21,1.68c-.11.46.58.91.22,1.48a.93.93,0,0,1-1,.43c-.25-.23-.42-.52-.85-.56S6.3,8,6.62,7.71a1.8,1.8,0,0,1,.63-.42.67.67,0,0,0,.44-.64A2.45,2.45,0,0,0,6,3c-.34-.08-.64.09-1,0a2.33,2.33,0,0,0-.51,0l-.14.05-.2.08L4,3.28l-.1.09,0,0-.1.09a.32.32,0,0,1-.19.08c-.5.13-.7.58-.93.94a5.85,5.85,0,0,0-.9,1.61.2.2,0,0,1-.32.13c-.15-.1-.24-.35-.08-.45.33-.19.5-.38.31-.77a.09.09,0,0,1,.08-.15c.38,0,.25-.45.43-.63A.76.76,0,0,0,2.07,4C2.11,3.56,2.59,3.7,2.77,3.45Z"/><path class="cls-15" d="M4.87,2.92a4.39,4.39,0,0,0,.55,0A2.32,2.32,0,0,1,7.76,4.05a2.2,2.2,0,0,1,0,2.65.19.19,0,0,1-.09.1l-.11.08-.05,0L7.39,7l-.13.08A1.51,1.51,0,0,1,7,7.22a.68.68,0,0,1-.42,0,.23.23,0,0,1-.11-.13.17.17,0,0,1,.07-.14c.13,0,.28,0,.4-.08A1.46,1.46,0,0,0,7.5,4.47,2.15,2.15,0,0,0,5.35,3.15c-.25,0-.51,0-.76,0a.94.94,0,0,0-.15.13H4.31a1.08,1.08,0,0,0-.15.13l-.28.14a1.11,1.11,0,0,0-.14.13h0L3.6,3.6l.14-.14.14-.14h0L4,3.19H4c.08-.08.2-.05.28-.14h0C4.47,2.9,4.71,3.07,4.87,2.92Z"/><path class="cls-19" d="M2.07,4c.24,0,.21.13.13.28L2,4.34c-.13,0,0,.4-.29.19s-.08-.29,0-.41A.46.46,0,0,1,2.07,4Z"/><path class="cls-20" d="M8.71,9.78l.14-.14a1.62,1.62,0,0,0,1-1A5.37,5.37,0,0,0,9.93,4,5.74,5.74,0,0,0,8.64,2,4.63,4.63,0,0,0,4.23.82a7.65,7.65,0,0,0-1,.41s-.1.08-.14.14H2.93a.12.12,0,0,1-.17,0l0-.1a.4.4,0,0,1,.1-.16L3.08.89c.2-.17.48-.1.69-.22A11.08,11.08,0,0,1,5.19.4,4.41,4.41,0,0,1,7.77,1,.53.53,0,0,0,8.4,1L8.61,1a.18.18,0,0,0,.15.12l.15.13A.18.18,0,0,0,9,1.45a.18.18,0,0,0,.14.14.18.18,0,0,0,.14.14.19.19,0,0,0,.13.15A.18.18,0,0,0,9.59,2a.33.33,0,0,0,.17.25.18.18,0,0,0,.14.14.19.19,0,0,0,.13.15.33.33,0,0,0,.14.27.34.34,0,0,0,.12.3.28.28,0,0,0,.16.26v.15c0,.18-.26.36,0,.55a11.4,11.4,0,0,1,.28,2.25,10,10,0,0,1-.34,2.17A2.09,2.09,0,0,1,9.6,9.62c-.2.16-.41.3-.61.44l-.14.13H8.57a.52.52,0,0,1-.58,0C8.16,9.88,8.5,10,8.71,9.78Z"/><path class="cls-21" d="M7.6,8.94c.36,0,.75,0,1-.41s.41-.7.57-1.07c0-.08.08-.17.11-.25l.08-.26a2.5,2.5,0,0,0,.13-.82,1.19,1.19,0,0,1,0-.18,1.23,1.23,0,0,0,0-.71,1.32,1.32,0,0,1,0-.35.92.92,0,0,0,0-.25.14.14,0,0,1,0-.15c0-.15,0-.32.14-.42q0,.07,0,.14c.08.08,0,.21.14.28h0c.08.08,0,.21.13.28s0,.09,0,.14,0,.21.13.28a5,5,0,0,1-.72,3.34,2.35,2.35,0,0,1-2.66.67c-.25-.2-.56-.41,0-.55A1.83,1.83,0,0,1,7.6,8.94Z"/><path class="cls-22" d="M2.79,1.22l.14.14a10.71,10.71,0,0,0-1.24,1c-.05.06-.12,0-.17,0s0-.09,0-.14L1.66,2a.38.38,0,0,0,.19-.24A.18.18,0,0,0,2,1.66l.13,0C2.35,1.53,2.45,1.18,2.79,1.22Z"/><path class="cls-8" d="M9.7,8.26a1.27,1.27,0,0,1,.36-.85c0,.32,0,.67-.36.85Z"/><path class="cls-17" d="M9.73,4.49a.28.28,0,0,1-.14-.28A.29.29,0,0,1,9.73,4.49Z"/><path class="cls-17" d="M9.87,4.77a.29.29,0,0,1-.13-.28A.29.29,0,0,1,9.87,4.77Z"/><path class="cls-17" d="M10,5.19a.29.29,0,0,1-.13-.28A.28.28,0,0,1,10,5.19Z"/><path class="cls-22" d="M3.07,1.36l.14-.14Z"/><path class="cls-23" d="M8.71,9.78a1.1,1.1,0,0,1-.6.32c.16.16.32.08.46.1-.17.26-.53,0-.7.27-.3,0-.6,0-.9,0C5.37,10.18,4.69,9,4.31,7.66a1.83,1.83,0,0,1,2-2.22c.11,0,.23,0,.27.19-.14.15-.33.07-.5.08A1.57,1.57,0,0,0,4.58,7.52a2.93,2.93,0,0,0,1.28,2,3.09,3.09,0,0,0,2.38.31A2.12,2.12,0,0,1,8.71,9.78Z"/><path class="cls-24" d="M5.9,11.57a.28.28,0,0,0-.14.27,3.07,3.07,0,0,0-1.28,0c-.31.12-.37.2-.12.46a1.58,1.58,0,0,0,1.39.36c0,.45-.44.49-.7.69-.5-.26-1.05-.43-1.32-1-.1-.22-.41-.35-.63-.52s-.1-.5-.27-.7-.11-.29.14-.28a1.06,1.06,0,0,0,.07-1,1.23,1.23,0,0,1,.11-1c0-.08.1-.17.21-.14a.14.14,0,0,1,.09.22c-.39.74,0,1.5-.06,2.25,0,.31.17.41.44.33a3,3,0,0,1,1.08-.24A1.42,1.42,0,0,1,5.9,11.57Z"/><path class="cls-1" d="M9.26,10.63a.28.28,0,0,1-.14.28A.29.29,0,0,1,9.26,10.63Z"/><path class="cls-24" d="M6,11.71l-.14-.13Z"/><path class="cls-20" d="M10.57,3.94a.18.18,0,0,1,0,.13h-.18Z"/><path class="cls-1" d="M8.84,11l-.14.14Z"/><path class="cls-1" d="M9,10.9,8.84,11Z"/><path class="cls-23" d="M8.84,10.2,9,10.07Z"/><path class="cls-22" d="M3.77.67a1.44,1.44,0,0,1-.7.27S3,.88,3,.85s0-.05,0-.05h0A.56.56,0,0,1,3.21.69a.12.12,0,0,1,.12,0Z"/><path class="cls-7" d="M3.07.8V.95l-.14.14-.14.14h0c-.26.09-.37.42-.69.41a.75.75,0,0,1,0-.12.18.18,0,0,0,.15-.13l.14-.14a.19.19,0,0,0,.14-.14A.18.18,0,0,0,2.67,1,.38.38,0,0,0,2.93.8Z"/><path class="cls-7" d="M3.21.69,3.07.8l0-.12Z"/><path class="cls-25" d="M3,10.84a.29.29,0,0,0-.14.28,4.33,4.33,0,0,1-.22-3c0-.11.08-.22.1-.33.14-.68.31-.72,1-.19-.19.12-.43-.08-.58.09s-.07.4-.12.6A5.21,5.21,0,0,0,3,10.84Z"/><path class="cls-26" d="M6.63,8.79c-.44.13,0,.28,0,.42C5.7,9,5.4,8.21,5.13,7.44a1,1,0,0,1,.26-.9.32.32,0,0,1,.31.2,1.47,1.47,0,0,0,.55,1.53C6.39,8.42,6.68,8.48,6.63,8.79Z"/><path class="cls-1" d="M5.67,6.69a.3.3,0,0,1-.28-.15s0-.09,0-.14c.16-.14.4-.13.56-.27A3,3,0,0,0,7.07,6a.3.3,0,0,1,.29.15,1.4,1.4,0,0,1-1.26.41.46.46,0,0,1-.33.14Z"/><path class="cls-27" d="M3.84,6.92a.88.88,0,0,1-.59-.45C3.66,6.48,3.66,6.48,3.84,6.92Z"/><path class="cls-28" d="M4.21,6.1a.88.88,0,0,1-.53-.44C4,5.64,4,5.64,4.21,6.1Z"/><path class="cls-26" d="M6,6.14a.49.49,0,0,1-.56.27A.48.48,0,0,1,6,6.14Z"/><path class="cls-3" d="M3.74,3.74l.14-.13Z"/><path class="cls-3" d="M4.16,3.46l.15-.13Z"/><path class="cls-3" d="M4.44,3.33l.15-.13Z"/><path class="cls-1" d="M6.59,12.13C6.7,12,6.86,12,7,12,6.91,12.16,6.75,12.13,6.59,12.13Z"/><path class="cls-29" d="M6.63,8.79A3.48,3.48,0,0,1,5.58,7.66a.75.75,0,0,1,.09-1h0a.35.35,0,0,1,.42,0c.1.17.27.14.43.15s.05.06,0,.09,0,0,0,0h0A.26.26,0,0,1,6.33,7a.19.19,0,0,1,.17.06h.56c.08-.08.21,0,.28-.14h0l.14-.13h0l.14-.13h.14c.22.37,0,.56-.31.67a4.6,4.6,0,0,0-.71.42c-.11.07-.23.18-.19.34s.21.23.38.24h.5c.15.16,0,.41.17.56A2.48,2.48,0,0,1,6.63,8.79Z"/><path class="cls-26" d="M6.09,6.69H5.67c.1-.17.27-.13.43-.13Q6.09,6.62,6.09,6.69Z"/><path class="cls-26" d="M6.5,7s0-.09,0-.13h.41C6.82,7,6.65,7,6.5,7Z"/><path class="cls-30" d="M5.76,12.69c-.79.38-1.35.16-1.92-.78.65-.16,1.26-.64,1.93-.06h0A1,1,0,0,0,5.9,12C6.17,12.28,6.16,12.33,5.76,12.69Z"/><path class="cls-24" d="M5.9,12l-.14-.14Z"/><path class="cls-31" d="M7,2.93H6.83c0-.14,0-.28,0-.41a.39.39,0,0,1,.38-.4.43.43,0,0,1,.51.25,1.59,1.59,0,0,1,.16.38c0,.2-.15.2-.28.19S7.3,3,7.4,2.8s.16-.35-.11-.4S7,2.57,7,2.79C7,2.84,7,2.88,7,2.93Z"/><path class="cls-32" d="M5.15,1.8c0,.17,0,.48-.32.18-.1-.1-.2-.21-.35-.11s-.14.26,0,.41.09.17-.06.19a.23.23,0,0,1-.22-.12s-.08-.1-.13-.14V1.93C4.46,1.44,4.46,1.44,5.15,1.8Z"/><path class="cls-33" d="M9.45,4.49s0,.09,0,.14l.13.14v.42a1.15,1.15,0,0,1,0,.84h0c-.16.31,0,.67-.15,1v.28l-.14.14a1.92,1.92,0,0,1-.71,1.11.88.88,0,0,1,0-.21.63.63,0,0,0-.52-.89,3.4,3.4,0,0,0,.55-2.11l.1.09c.14.15.13.53.45.41s.12-.41.15-.62S9.22,4.69,9.45,4.49Z"/><path class="cls-3" d="M4.87,2.92c-.15.2-.37.11-.56.13C4.46,2.85,4.67,2.93,4.87,2.92Z"/><path class="cls-3" d="M4.31,3A.29.29,0,0,1,4,3.19.28.28,0,0,1,4.31,3Z"/><path class="cls-3" d="M3.89,3.32l-.14.14Z"/><path class="cls-3" d="M4,3.19l-.14.14Z"/><path class="cls-16" d="M4,2.21l.13.14Z"/><path class="cls-26" d="M6.5,7.11c-.07,0-.17,0-.17-.07S6.43,7,6.5,7Z"/><path class="cls-18" d="M7.34,7a.28.28,0,0,1-.28.14A.3.3,0,0,1,7.34,7Z"/><path class="cls-18" d="M7.48,6.85,7.34,7Z"/><path class="cls-18" d="M7.62,6.72l-.14.13Z"/><path class="cls-22" d="M2.79,1.22l.14-.14Z"/><path class="cls-17" d="M9.43,7c.05-.32-.12-.68.15-1A1.1,1.1,0,0,1,9.43,7Z"/><path class="cls-17" d="M9.58,6V5.19A.64.64,0,0,1,9.58,6Z"/><path class="cls-17" d="M9.59,4.77l-.13-.14Z"/><path class="cls-17" d="M9.29,7.42l.14-.14Z"/><path class="cls-34" d="M5.31,12.28a.2.2,0,0,1-.18.25c-.11,0-.24,0-.27-.12s.08-.24.22-.27A.18.18,0,0,1,5.31,12.28Z"/><path class="cls-17" d="M9.27,6.74a.81.81,0,0,1-.83.62C8.7,7.17,8.84,6.84,9.27,6.74Z"/></svg>