<svg id="Sun" xmlns="http://www.w3.org/2000/svg" viewBox="0 0 106.35 97.95"><defs><style>.cls-1{fill:#e4d41d;}</style></defs><title>Sung</title><path class="cls-1" d="M106.35,45.25q-.07,4.88-.13,9.76c-1,1-1,2.31-1.2,3.56l-.43,1C99.41,73.39,89,80.11,74.75,82,61,83.76,49.37,79.61,39.16,70.58c-3.79-3.35-4.93-7.82-5.82-12.47l.39-2.74A1.57,1.57,0,0,0,34,53.71c.84-2.14,1.56-4.33,2.55-6.4C39.32,41.57,45,38,50.76,38.44c5.05.35,8.42,3.2,10.8,7.45a11.46,11.46,0,0,0,3.34,7c2,2.27,4.19,2,5.45-.72,5.09-10.9,2.39-17.38-9.64-24.33-5.27-3-11.19-3.15-17-3.29-2.66-.06-5,1.87-7,3.46-9.33,7.25-14.85,16.75-15.25,28.68-.23,6.79,2.18,12.84,6.42,18.34a40,40,0,0,0,12.46,10.9C45.92,89,52,88.37,58,88.11c6.75-.29,13.4-.87,19.72-3.64,1.82-.8,4.44-1.22,5.5.95s-1.55,3.14-2.93,4a60.18,60.18,0,0,1-22.57,8.07c-11.58,1.77-22-1.59-32.34-6.22a51.77,51.77,0,0,1-12.23-7.38C3.64,75.9-.28,65.42,0,53.19c0-.88,0-1.77,0-2.65l.13-1a23.56,23.56,0,0,0,2.17-5.81.27.27,0,0,0,.1-.3A66.63,66.63,0,0,1,12.53,30.57,53,53,0,0,1,24.23,23.1c12.15-5.2,24.56-7.14,37.4-2.73,8,2.76,15.1,6.7,17.44,15.79a.86.86,0,0,0,.27,1.07l.21,1.62a3.11,3.11,0,0,0,.31,2.65L79.94,49A5.85,5.85,0,0,0,79,52.18l-.27,1c-.91.43-1,1.41-1.44,2.16-4.9,8.73-14.32,9.3-20.19,1.19A13.48,13.48,0,0,0,51.36,52c-4.26-1.8-7.13.24-7.06,4.93a2.89,2.89,0,0,0,.53,2.63,10.29,10.29,0,0,0,4,8.17l0,.06c.53,1.58,1.85,2.26,3.24,2.88a39.45,39.45,0,0,0,9.69,2.63A23.69,23.69,0,0,0,86.94,60.77h0a28.56,28.56,0,0,0,3.19-6.19,25.21,25.21,0,0,0,1.68-11.09c-.2-3.42-.31-7.08-3.26-9.66a5.61,5.61,0,0,0-1.66-3.48,1,1,0,0,0-.5-1.11,24.79,24.79,0,0,0-7.58-7.36.89.89,0,0,0-1.08-.57,44.54,44.54,0,0,0-15.87-6.9,1.6,1.6,0,0,0-1.68-.53l-1.27-.17L58,13.27a12.83,12.83,0,0,0-4.44-1.18l-.88-.43-1.2-.24a1.23,1.23,0,0,0-1.49-.6l-1.47-.25a2.76,2.76,0,0,0-2.2-.47,37.69,37.69,0,0,0-15.94.13l-.75.28a21,21,0,0,0-13.81,9.89c-1.78,1.17-2.79,3-4.18,4.57s-2.61,3.39-5.16,2.65L6.6,26.3a5.67,5.67,0,0,0,3-5A46.39,46.39,0,0,1,30.07,3.15a38.82,38.82,0,0,1,13.67-3C62.83-1,79.31,5,93,18.36c7.29,7.08,11.46,15.83,13.2,25.78A.84.84,0,0,0,106.35,45.25Z"/></svg>